<?xml version="1.0" encoding="utf-8"?>
<!-- Generator: Adobe Illustrator 23.0.3, SVG Export Plug-In . SVG Version: 6.00 Build 0)  -->
<svg version="1.1" id="Layer_1" xmlns="http://www.w3.org/2000/svg" xmlns:xlink="http://www.w3.org/1999/xlink" x="0px" y="0px"
	 viewBox="0 0 122.9 110.3" style="enable-background:new 0 0 122.9 110.3;" xml:space="preserve">
<style type="text/css">
	.st0{fill:#BBBDBF;}
	.st1{fill:#FFFFFF;stroke:#FFFFFF;stroke-width:3.0443;stroke-miterlimit:10;}
	.st2{fill:none;stroke:#BBBDBF;stroke-width:2.6472;stroke-miterlimit:10;}
</style>
<g>
	<path class="st0" d="M94.1,28.2c0-2.6-2.1-4.8-4.8-4.8H58.3c-0.3-3.5-3.2-6.3-6.8-6.3H30.7c-3.8,0-6.9,3.1-6.9,6.9v7.4l70.2,0
		L94.1,28.2z"/>
	<path class="st0" d="M79.3,34.2v9.2c0,1.2,1,2.2,2.2,2.2c1.2,0,2.2-1,2.2-2.2v-9.2c0-1.2-1-2.2-2.2-2.2
		C80.3,31.9,79.3,32.9,79.3,34.2L79.3,34.2z"/>
	<path class="st0" d="M104.4,34.2v9.2c0,1.2,1,2.2,2.2,2.2c1.2,0,2.2-1,2.2-2.2v-9.2c0-1.2-1-2.2-2.2-2.2
		C105.4,31.9,104.4,32.9,104.4,34.2L104.4,34.2z"/>
	<path class="st0" d="M25.2,77.6c0.2,1.3,1.5,2.5,2.8,2.5h41.5c-0.1-0.2-0.3-0.4-0.4-0.6c-1.2-1.4-2-3.2-2-5.1l0-32.6
		c0-3.4,2.3-6.2,5.5-7l-50.8,0c-0.5,0-1,0.2-1.3,0.5c-0.3,0.3-0.4,0.8-0.4,1.4L25.2,77.6z"/>
	<path class="st0" d="M85.8,53.8h6.7v4.6h-6.7V53.8z"/>
	<path class="st0" d="M95.7,53.8h6.7v4.6h-6.7V53.8z"/>
	<path class="st0" d="M105.7,53.8h6.7v4.6h-6.7V53.8z"/>
	<path class="st0" d="M75.8,61.1h6.7v4.6h-6.7V61.1z"/>
	<path class="st0" d="M85.8,61.1h6.7v4.6h-6.7V61.1z"/>
	<path class="st0" d="M95.7,61.1h6.7v4.6h-6.7V61.1z"/>
	<path class="st0" d="M105.7,61.1h6.7v4.6h-6.7V61.1z"/>
	<path class="st0" d="M75.8,68.5h6.7v4.6h-6.7V68.5z"/>
	<path class="st0" d="M85.8,68.5h6.7v4.6h-6.7V68.5z"/>
	<path class="st0" d="M95.7,68.5h6.7v4.6h-6.7V68.5z"/>
	<path class="st0" d="M105.7,68.5h6.7v4.6h-6.7V68.5z"/>
	<path class="st0" d="M113.9,37.5H111v5.8c0,2.4-2,4.4-4.4,4.4c-2.4,0-4.4-2-4.4-4.4v-5.8H85.9v5.8c0,2.4-2,4.4-4.4,4.4
		c-2.4,0-4.4-2-4.4-4.4v-5.8h-2.9c-2.3,0-4.3,1.9-4.3,4.3v32.6c0,2.6,2.1,4.8,4.8,4.8h38.6c2.6,0,4.8-2.1,4.8-4.8l0-32.6
		C118.2,39.5,116.3,37.5,113.9,37.5L113.9,37.5z M115.6,74c0,1.3-1.1,2.4-2.4,2.4H75c-1.3,0-2.4-1.1-2.4-2.4V51.3c0-0.5,0.4-1,1-1
		h41c0.5,0,1,0.4,1,1L115.6,74z"/>
	<circle class="st1" cx="26.4" cy="76.3" r="21.2"/>
	<g>
		<path class="st0" d="M27.3,72.8v-5.7c0-0.6-0.5-1.2-1.2-1.2S25,66.4,25,67.1v5.7c-1.5,0.5-2.6,1.9-2.6,3.6c0,0.6,0.2,1.2,0.4,1.7
			l-4.4,4.4c-0.4,0.4-0.4,1.2,0,1.6c0.2,0.2,0.5,0.3,0.8,0.3s0.6-0.1,0.8-0.3l4.4-4.4c0.5,0.3,1.1,0.4,1.7,0.4
			c2.1,0,3.8-1.7,3.8-3.8C30,74.7,28.9,73.3,27.3,72.8L27.3,72.8z M26.2,77.9c-0.8,0-1.5-0.7-1.5-1.5s0.7-1.5,1.5-1.5
			s1.5,0.7,1.5,1.5S27,77.9,26.2,77.9z"/>
		<path class="st0" d="M26.2,64.7c0.6,0,1.2-0.5,1.2-1.2v-2c0-0.6-0.5-1.2-1.2-1.2S25,60.9,25,61.6v2C25,64.2,25.5,64.7,26.2,64.7z"
			/>
		<path class="st0" d="M26.2,88.1c-0.6,0-1.2,0.5-1.2,1.2v2c0,0.6,0.5,1.2,1.2,1.2s1.2-0.5,1.2-1.2v-2
			C27.3,88.6,26.8,88.1,26.2,88.1z"/>
		<path class="st0" d="M18.8,65.9c0.2,0.4,0.6,0.6,1,0.6c0.2,0,0.4-0.1,0.6-0.2c0.6-0.3,0.7-1,0.4-1.6l-1-1.7
			c-0.3-0.6-1-0.7-1.6-0.4c-0.6,0.3-0.7,1-0.4,1.6L18.8,65.9z"/>
		<path class="st0" d="M33.6,87c-0.3-0.6-1-0.7-1.6-0.4c-0.6,0.3-0.7,1-0.4,1.6l1,1.7c0.2,0.4,0.6,0.6,1,0.6c0.2,0,0.4-0.1,0.6-0.2
			c0.6-0.3,0.7-1,0.4-1.6L33.6,87z"/>
		<path class="st0" d="M15.6,69l-1.7-1c-0.6-0.3-1.3-0.1-1.6,0.4C12,69,12.2,69.7,12.7,70l1.7,1c0.2,0.1,0.4,0.2,0.6,0.2
			c0.4,0,0.8-0.2,1-0.6C16.4,70,16.2,69.3,15.6,69L15.6,69z"/>
		<path class="st0" d="M39.6,82.8l-1.7-1c-0.6-0.3-1.3-0.1-1.6,0.4c-0.3,0.6-0.1,1.3,0.4,1.6l1.7,1c0.2,0.1,0.4,0.2,0.6,0.2
			c0.4,0,0.8-0.2,1-0.6C40.3,83.8,40.1,83.1,39.6,82.8L39.6,82.8z"/>
		<path class="st0" d="M14.5,76.4c0-0.6-0.5-1.2-1.2-1.2h-2c-0.6,0-1.2,0.5-1.2,1.2s0.5,1.2,1.2,1.2h2C14,77.6,14.5,77,14.5,76.4z"
			/>
		<path class="st0" d="M41,75.2h-2c-0.6,0-1.2,0.5-1.2,1.2c0,0.6,0.5,1.2,1.2,1.2h2c0.6,0,1.2-0.5,1.2-1.2
			C42.2,75.8,41.7,75.2,41,75.2z"/>
		<path class="st0" d="M14.5,81.8l-1.7,1c-0.6,0.3-0.7,1-0.4,1.6c0.2,0.4,0.6,0.6,1,0.6c0.2,0,0.4-0.1,0.6-0.2l1.7-1
			c0.6-0.3,0.7-1,0.4-1.6C15.7,81.7,15,81.5,14.5,81.8L14.5,81.8z"/>
		<path class="st0" d="M37.3,71.1c0.2,0,0.4-0.1,0.6-0.2l1.7-1c0.6-0.3,0.7-1,0.4-1.6c-0.3-0.6-1-0.7-1.6-0.4l-1.7,1
			c-0.6,0.3-0.7,1-0.4,1.6C36.5,70.9,36.9,71.1,37.3,71.1L37.3,71.1z"/>
		<path class="st0" d="M20.3,86.5c-0.6-0.3-1.3-0.1-1.6,0.4l-1,1.7c-0.3,0.6-0.1,1.3,0.4,1.6c0.2,0.1,0.4,0.2,0.6,0.2
			c0.4,0,0.8-0.2,1-0.6l1-1.7C21.1,87.6,20.9,86.9,20.3,86.5L20.3,86.5z"/>
		<path class="st0" d="M34.2,62.6c-0.6-0.3-1.3-0.1-1.6,0.4l-1,1.7c-0.3,0.6-0.1,1.3,0.4,1.6c0.2,0.1,0.4,0.2,0.6,0.2
			c0.4,0,0.8-0.2,1-0.6l1-1.7C34.9,63.6,34.7,62.9,34.2,62.6L34.2,62.6z"/>
		<circle class="st2" cx="26.4" cy="76.3" r="18.4"/>
	</g>
</g>
</svg>
