<?xml version="1.0" encoding="utf-8"?>
<!-- Generator: Adobe Illustrator 23.0.3, SVG Export Plug-In . SVG Version: 6.00 Build 0)  -->
<svg version="1.1" id="Layer_1" xmlns="http://www.w3.org/2000/svg" xmlns:xlink="http://www.w3.org/1999/xlink" x="0px" y="0px"
	 viewBox="0 0 122.9 110.3" style="enable-background:new 0 0 122.9 110.3;" xml:space="preserve">
<style type="text/css">
	.st0{fill:#BBBDBF;}
</style>
<g>
	<path class="st0" d="M20,27.6c0-2.9-2.4-5.3-5.3-5.3c-2.9,0-5.3,2.4-5.3,5.3v61.5H20V78.9h85v10.2l10.6,0V57.5H20L20,27.6z"/>
	<path class="st0" d="M99.9,33.3H43.3v20.3h72.3V49C115.6,40.3,108.6,33.3,99.9,33.3L99.9,33.3z"/>
	<path class="st0" d="M40.1,44.7c0,4.9-4,8.9-8.9,8.9s-8.9-4-8.9-8.9s4-8.9,8.9-8.9S40.1,39.8,40.1,44.7"/>
</g>
</svg>
