<?xml version="1.0" encoding="utf-8"?>
<!-- Generator: Adobe Illustrator 23.0.3, SVG Export Plug-In . SVG Version: 6.00 Build 0)  -->
<svg version="1.1" id="Layer_1" xmlns="http://www.w3.org/2000/svg" xmlns:xlink="http://www.w3.org/1999/xlink" x="0px" y="0px"
	 viewBox="0 0 122.9 110.3" style="enable-background:new 0 0 122.9 110.3;" xml:space="preserve">
<style type="text/css">
	.st0{fill:#BBBDBF;}
	.st1{fill:#FFFFFF;stroke:#BBBDBF;stroke-width:1.6526;stroke-miterlimit:10;}
</style>
<g>
	<g>
		<path class="st0" d="M35,46.4c0-1.2-1-2.2-2.2-2.2c-1.2,0-2.2,1-2.2,2.2v26H35v-4.3h35.9v4.3l4.5,0V59H35L35,46.4z"/>
		<path class="st0" d="M68.7,48.8H44.8v8.6h30.5v-2C75.3,51.8,72.4,48.8,68.7,48.8L68.7,48.8z"/>
		<path class="st0" d="M43.4,53.6c0,2.1-1.7,3.8-3.8,3.8c-2.1,0-3.8-1.7-3.8-3.8c0-2.1,1.7-3.8,3.8-3.8
			C41.8,49.8,43.4,51.5,43.4,53.6"/>
	</g>
	<g>
		<circle class="st1" cx="72.8" cy="56.4" r="22.1"/>
		<g>
			<path class="st0" d="M72.7,56.9c-1.3,0-2.5,0.5-3.4,1.4c-0.9,0.9-1.4,2.1-1.4,3.4c0,1.3,0.5,2.5,1.4,3.4c0.9,0.9,2.1,1.4,3.4,1.4
				c1.3,0,2.5-0.5,3.4-1.4c0.9-0.9,1.4-2.1,1.4-3.4c0-1.3-0.5-2.5-1.4-3.4C75.2,57.4,73.9,56.9,72.7,56.9z M73,61.3
				c0.6,0.4,1.4,0.9,1.4,1.7v0c0,0.3-0.1,0.7-0.3,0.9c-0.2,0.3-0.5,0.4-0.8,0.5V65h-1v-0.6c-0.3-0.1-0.6-0.3-0.8-0.6
				c-0.2-0.3-0.3-0.6-0.3-1h1c0,0.4,0.3,0.6,0.6,0.6c0.1,0,0.6,0,0.6-0.5c0-0.3-0.5-0.6-0.9-0.9c-0.6-0.4-1.4-0.9-1.4-1.7
				c0-0.3,0.1-0.7,0.3-0.9c0.2-0.3,0.5-0.4,0.8-0.5v-0.5h1V59c0.3,0.1,0.6,0.3,0.8,0.6c0.2,0.3,0.3,0.6,0.3,1h-1
				c0-0.4-0.3-0.6-0.6-0.6c-0.1,0-0.6,0-0.6,0.5C72,60.7,72.5,61,73,61.3L73,61.3z"/>
			<path class="st0" d="M86.5,54.3H58.9c-0.3,0-0.6,0.3-0.6,0.6v13.7c0,0.3,0.3,0.6,0.6,0.6h27.5c0.3,0,0.6-0.3,0.6-0.6V54.9
				C87.1,54.5,86.8,54.3,86.5,54.3z M85.9,64.7c-0.8,0.1-1.6,0.4-2.2,1c-0.6,0.6-1,1.4-1,2.2H62.8c-0.1-0.8-0.4-1.6-1-2.2
				c-0.6-0.6-1.4-1-2.2-1v-6c0.8-0.1,1.6-0.4,2.2-1c0.6-0.6,1-1.4,1-2.2h19.9c0.1,0.8,0.4,1.6,1,2.2c0.6,0.6,1.4,1,2.2,1V64.7z"/>
			<path class="st0" d="M71.8,52c-0.1,0.1-0.5,0.4-0.2,0.8c0.2,0.2,0.7,0.2,1.2,0.2h0c0.4,0,0.8,0,1.2,0h3.5c-0.1-1.6-1.1-3-2.5-3.7
				c-1.4-0.8-3.1-0.8-4.5,0c-1.4,0.8-2.3,2.2-2.5,3.7h2.5c-0.1-0.3-0.1-0.5-0.1-0.8c0.1-0.3,0.2-0.5,0.3-0.7L70.6,51l0.8-0.6
				l0.3,0.5l0,0c0.3-0.1,0.7-0.1,1,0c0.3,0.1,0.6,0.3,0.8,0.6l-0.8,0.6c-0.1-0.1-0.2-0.2-0.4-0.3C72.1,51.8,72,51.9,71.8,52L71.8,52
				z"/>
			<path class="st0" d="M62.7,52.9l13.1-9.2c0.5,0.6,1.3,1.1,2.1,1.2c0.8,0.1,1.7,0,2.4-0.4l3.4,4.9c-0.5,0.4-0.9,1-1.1,1.6
				c-0.2,0.6-0.2,1.3-0.1,2h3.8l0.4-0.3c0.3-0.2,0.3-0.6,0.1-0.8l-7.8-11.2c-0.1-0.1-0.2-0.2-0.4-0.2c-0.2,0-0.3,0-0.4,0.1L60.6,53
				L62.7,52.9C62.7,53,62.7,53,62.7,52.9L62.7,52.9z"/>
		</g>
	</g>
</g>
</svg>
