<?xml version="1.0" encoding="utf-8"?>
<!-- Generator: Adobe Illustrator 23.0.3, SVG Export Plug-In . SVG Version: 6.00 Build 0)  -->
<svg version="1.1" id="Layer_1" xmlns="http://www.w3.org/2000/svg" xmlns:xlink="http://www.w3.org/1999/xlink" x="0px" y="0px"
	 viewBox="0 0 122.9 110.3" style="enable-background:new 0 0 122.9 110.3;" xml:space="preserve">
<style type="text/css">
	.st0{fill:#BBBDBF;}
</style>
<g>
	<path class="st0" d="M28.6,15.9c0,1.9,0,3.7,0,5.6c-1.2,0-2.3,0-3.5,0c-1-0.1-1.6,0.4-1.9,1.4c-0.1,0.2-0.2,0.5-0.2,0.7
		c0,3.2,0,6.4,0,9.7c25.1,0,50.1,0,75.3,0c0,1.8,0,3.5,0,5.2c0,0.2-0.4,0.5-0.6,0.6c-0.4,0.1-0.9,0-1.4,0c-23.8,0-47.6,0-71.4,0
		c-0.6,0-1.2,0-2,0c0,0.6,0,1,0,1.5c0,15.7,0,31.5,0,47.2c0,2.5,1.2,3.7,3.7,3.7c22.7,0,45.4,0,68.2,0c2.5,0,3.7-1.2,3.7-3.7
		c0-20.9,0-41.8,0-62.7c0-0.6-0.1-1.2-0.2-1.7c-0.4-1.4-0.9-1.8-2.3-1.8c-1,0-2,0-3.1,0c0-1.9,0-3.7,0-5.4c5.4-0.7,9.4,0,11.1,6.3
		c0.2,0.9,0.2,1.9,0.2,2.8c0,20.7,0,41.5,0,62.2c0,5.6-4,9.6-9.6,9.6c-22.8,0-45.7,0-68.5,0c-5.3,0-9.1-3.8-9.1-9.1
		c0-21,0-41.9,0-62.9c0-1.7,0.4-3.5,1.1-5.1c1.2-2.7,3.5-4.1,6.6-4.1C26.1,15.9,27.3,15.9,28.6,15.9z"/>
	<path class="st0" d="M74.8,21.6c-9.6,0-19,0-28.5,0c0-1.9,0-3.7,0-5.7c9.5,0,19,0,28.5,0C74.8,17.8,74.8,19.7,74.8,21.6z"/>
	<path class="st0" d="M40.3,18.6c0,1.9,0,3.7,0,5.6c0,1.9-1.2,3.2-2.9,3.2c-1.7,0-2.9-1.2-2.9-3.1c0-3.7,0-7.4,0-11.1
		c0-1.9,1.3-3.2,2.9-3.2c1.6,0,2.8,1.4,2.8,3.2C40.3,15,40.3,16.8,40.3,18.6z"/>
	<path class="st0" d="M80.8,18.7c0-1.9,0-3.8,0-5.7c0-1.7,1.3-3.1,2.9-3c1.5,0,2.8,1.3,2.8,3c0,3.9,0,7.7,0,11.6
		c0,1.7-1.3,2.9-2.9,2.9c-1.6,0-2.8-1.2-2.8-2.9C80.8,22.5,80.8,20.6,80.8,18.7z"/>
	<path class="st0" d="M40.4,45c1.9,0,3.6,0,5.5,0c0,1.8,0,3.6,0,5.5c-1.8,0-3.6,0-5.5,0C40.4,48.7,40.4,47,40.4,45z"/>
	<path class="st0" d="M57.4,50.5c-1.8,0-3.6,0-5.4,0c0-1.8,0-3.6,0-5.5c1.7,0,3.5,0,5.4,0C57.4,46.8,57.4,48.6,57.4,50.5z"/>
	<path class="st0" d="M69.1,50.5c-1.9,0-3.6,0-5.5,0c0-1.8,0-3.6,0-5.5c1.8,0,3.6,0,5.5,0C69.1,46.9,69.1,48.7,69.1,50.5z"/>
	<path class="st0" d="M75.1,45c2,0,3.7,0,5.6,0c0,1.8,0,3.6,0,5.5c-1.9,0-3.7,0-5.6,0C75.1,48.7,75.1,46.9,75.1,45z"/>
	<path class="st0" d="M92.2,45.1c0,1.8,0,3.6,0,5.5c-1.8,0-3.6,0-5.4,0c0-1.8,0-3.6,0-5.5C88.6,45.1,90.4,45.1,92.2,45.1z"/>
	<path class="st0" d="M28.9,56.7c1.8,0,3.6,0,5.4,0c0,1.8,0,3.6,0,5.5c-1.8,0-3.6,0-5.4,0C28.9,60.4,28.9,58.6,28.9,56.7z"/>
	<path class="st0" d="M46,56.7c0,1.9,0,3.6,0,5.5c-1.9,0-3.7,0-5.6,0c0-1.8,0-3.6,0-5.5C42.2,56.7,44,56.7,46,56.7z"/>
	<path class="st0" d="M52,56.7c1.8,0,3.5,0,5.4,0c0,1.8,0,3.6,0,5.4c-1.7,0-3.5,0-5.4,0C52,60.4,52,58.6,52,56.7z"/>
	<path class="st0" d="M69,62.1c-1.8,0-3.5,0-5.4,0c0-1.8,0-3.6,0-5.4c1.7,0,3.5,0,5.4,0C69,58.4,69,60.2,69,62.1z"/>
	<path class="st0" d="M75.1,62.1c0-1.8,0-3.6,0-5.4c1.9,0,3.7,0,5.6,0c0,1.8,0,3.5,0,5.4C78.9,62.1,77.1,62.1,75.1,62.1z"/>
	<path class="st0" d="M92.2,62.2c-1.8,0-3.5,0-5.4,0c0-1.8,0-3.6,0-5.5c1.7,0,3.5,0,5.4,0C92.2,58.5,92.2,60.3,92.2,62.2z"/>
	<path class="st0" d="M28.8,73.8c0-1.8,0-3.6,0-5.5c1.8,0,3.6,0,5.4,0c0,1.8,0,3.6,0,5.5C32.4,73.8,30.7,73.8,28.8,73.8z"/>
	<path class="st0" d="M40.3,73.8c0-1.7,0-3.3,0-4.9c0-0.3,0.4-0.7,0.7-0.7c1.4-0.1,2.9-0.1,4.3,0c0.2,0,0.7,0.4,0.7,0.6
		c0.1,1.6,0,3.3,0,5C44.1,73.8,42.3,73.8,40.3,73.8z"/>
	<path class="st0" d="M52,68.2c1.8,0,3.6,0,5.5,0c0,1.9,0,3.7,0,5.6c-1.8,0-3.6,0-5.5,0C52,71.9,52,70.1,52,68.2z"/>
	<path class="st0" d="M69.1,73.8c-1.9,0-3.6,0-5.4,0c0-1.9,0-3.7,0-5.6c1.8,0,3.6,0,5.4,0C69.1,70,69.1,71.9,69.1,73.8z"/>
	<path class="st0" d="M80.7,73.8c-1.9,0-3.7,0-5.6,0c0-1.8,0-3.5,0-5.3c0-0.2,0.4-0.4,0.6-0.4c1.6,0,3.3,0,5,0
		C80.7,70.1,80.7,71.9,80.7,73.8z"/>
	<path class="st0" d="M92.3,73.8c-1.9,0-3.7,0-5.6,0c0-1.7,0-3.4,0-5.1c0-0.2,0.4-0.6,0.6-0.6c1.4-0.1,2.9-0.1,4.3,0
		c0.2,0,0.6,0.4,0.7,0.6C92.3,70.4,92.3,72,92.3,73.8z"/>
	<path class="st0" d="M40.3,85.4c0-1.9,0-3.7,0-5.6c1.7,0,3.4,0,5.1,0c0.2,0,0.6,0.4,0.6,0.7c0.1,1.4,0.1,2.8,0,4.2
		c0,0.2-0.4,0.7-0.6,0.7C43.7,85.4,42.1,85.4,40.3,85.4z"/>
	<path class="st0" d="M52,85.3c0-1.8,0-3.6,0-5.4c1.8,0,3.6,0,5.5,0c0,1.8,0,3.6,0,5.4C55.7,85.3,53.9,85.3,52,85.3z"/>
	<path class="st0" d="M69.1,79.9c0,1.8,0,3.6,0,5.4c-1.8,0-3.6,0-5.5,0c0-1.8,0-3.5,0-5.4C65.4,79.9,67.2,79.9,69.1,79.9z"/>
	<path class="st0" d="M75.2,79.8c1.9,0,3.7,0,5.6,0c0,1.8,0,3.6,0,5.5c-1.9,0-3.6,0-5.6,0C75.2,83.5,75.2,81.7,75.2,79.8z"/>
	<path class="st0" d="M34.3,85.4c-1.7,0-3.3,0-4.9,0c-0.2,0-0.6-0.4-0.6-0.6c-0.1-1.6,0-3.2,0-4.8c1.9,0,3.7,0,5.5,0
		C34.3,81.7,34.3,83.4,34.3,85.4z"/>
</g>
</svg>
