<?xml version="1.0" encoding="utf-8"?>
<!-- Generator: Adobe Illustrator 23.0.3, SVG Export Plug-In . SVG Version: 6.00 Build 0)  -->
<svg version="1.1" id="Layer_1" xmlns="http://www.w3.org/2000/svg" xmlns:xlink="http://www.w3.org/1999/xlink" x="0px" y="0px"
	 viewBox="0 0 122.9 110.3" style="enable-background:new 0 0 122.9 110.3;" xml:space="preserve">
<style type="text/css">
	.st0{fill:#BBBDBF;}
	.st1{fill:#FFFFFF;}
</style>
<g>
	<g>
		<path class="st0" d="M57.1,20c-0.1,0.4-0.1,0.8-0.1,1.3c0,5.6,4.2,10.1,9.5,10.1c5.2,0,9.5-4.5,9.5-10.1c0-0.4,0-0.9-0.1-1.3
			c0.2-0.1,0.4-0.2,0.4-0.5c0.2-1.3,0.3-3.2,0.3-4.6c-0.1-2.1-0.7-4.2-2.4-5.5c-0.8-0.6-1.8-1-2.8-1.3c-1.5-0.5-3.2-0.7-4.8-0.7
			c-1,0-2,0.1-2.9,0.2c-0.7,0.1-1.5,0.3-2.2,0.5c-1,0.3-2,0.7-2.8,1.3c-1.6,1.3-2.1,3.8-2.2,5.8c0,0.5-0.1,1.9,0.2,4.3
			C56.7,19.8,56.9,19.9,57.1,20L57.1,20z M66.5,30.1c-4.5,0-8.2-4-8.2-8.8c0-0.5,0-1,0.1-1.5c1.8-0.3,4.7-0.8,7.4-0.8
			c0.2,0,0.4,0,0.5,0c3.5,0.1,6.5,0.5,8.2,0.8c0.1,0.5,0.1,1,0.1,1.5C74.8,26.1,71.1,30.1,66.5,30.1L66.5,30.1z M57.7,15.3
			c0.2-2.4,0.8-4.1,1.8-4.9c0.7-0.5,1.6-0.9,2.4-1.1c0.6-0.2,1.3-0.4,2-0.5c0.9-0.1,1.8-0.2,2.7-0.2c1.6,0,3.1,0.2,4.4,0.7
			c0.8,0.3,1.7,0.6,2.4,1.1c1.2,1,1.9,2.5,2,4.6c0.1,1.1,0,2.5-0.1,3.6c-1.7-0.3-4.9-0.8-8.8-0.9c-0.2,0-0.4,0-0.6,0
			c-3,0-6.3,0.5-8,0.9C57.6,16.8,57.7,15.7,57.7,15.3L57.7,15.3z"/>
		<path class="st0" d="M64.4,14.7h0.5v0.5c0,0.5,0.4,1,1,1h1.4c0.5,0,1-0.4,1-1v-0.5h0.5c0.5,0,1-0.4,1-1l0-1.4c0-0.5-0.4-1-1-1
			h-0.5v-0.5c0-0.5-0.4-1-1-1h-1.4c-0.5,0-1,0.4-1,1v0.5h-0.5c-0.5,0-1,0.4-1,1v1.4C63.4,14.3,63.8,14.7,64.4,14.7L64.4,14.7z
			 M64.6,12.6h0.8c0.3,0,0.6-0.3,0.6-0.6v-0.8H67V12c0,0.3,0.3,0.6,0.6,0.6h0.8v0.9h-0.8c-0.3,0-0.6,0.3-0.6,0.6v0.8h-0.9v-0.8
			c0-0.3-0.3-0.6-0.6-0.6h-0.8V12.6z"/>
		<path class="st0" d="M78.7,49l-0.3-0.1c0.1,0.5,0.1,0.9,0.1,1.4c0.1,0,0.1,0,0.2,0c0.1,0,0.2,0,0.3-0.1l3-1.5
			c0.2-0.1,0.3-0.3,0.3-0.6v-5.4c0-0.3-0.3-0.6-0.6-0.6h-6.3c0,0-0.1,0-0.1,0c0.4,0.4,0.7,0.8,1,1.2h4.8v1.3h-4
			c0.2,0.4,0.4,0.8,0.6,1.3h3.4v1.9L78.7,49z"/>
		<path class="st0" d="M87.4,76.2c0.3,0,0.6-0.3,0.6-0.6S87.7,75,87.4,75h-1.6c-0.1-0.1-0.2-0.1-0.3-0.2c0,0,0,0-0.1,0
			C84.9,67.1,79,61.2,71.2,60c3.6-1.7,6.1-5.4,6.1-9.7c0-5.9-4.8-10.7-10.7-10.7c-5.9,0-10.7,4.8-10.7,10.7c0,4.3,2.5,8,6.1,9.7
			c-7.9,1.1-13.8,7.1-14.3,14.9c-0.1,0-0.2,0.1-0.2,0.1h-1.5c-0.3,0-0.6,0.3-0.6,0.6s0.3,0.6,0.6,0.6h1.2c0.2,2.2,0.8,9.5,1.1,12.1
			c0,0.3,0.3,0.6,0.6,0.6c0,0,0.1,0,0.1,0c0.3,0,0.6-0.4,0.5-0.7c-0.3-2.6-0.9-9.7-1.1-11.9h36.6c-0.2,2.1-1,9.5-1.3,11.9
			c0,0.3,0.2,0.7,0.5,0.7c0.3,0,0.7-0.2,0.7-0.5c0.3-2.5,1.1-10.2,1.4-12.1L87.4,76.2z M57.1,50.3c0-5.2,4.3-9.5,9.5-9.5
			s9.5,4.3,9.5,9.5c0,5.2-4.3,9.5-9.5,9.5S57.1,55.6,57.1,50.3z M64.6,61.1h3.8c8.6,0,15.2,5.8,15.8,13.9H48.9
			C49.4,67,56.1,61.1,64.6,61.1L64.6,61.1z"/>
		<path class="st0" d="M56.8,43.4c0.3-0.4,0.7-0.9,1-1.2c0,0-0.1,0-0.1,0h-6.3c-0.3,0-0.6,0.3-0.6,0.6v5.4c0,0.2,0.1,0.5,0.4,0.6
			l3.3,1.5c0,0,0.1,0,0.1,0c0-0.5,0-0.9,0.1-1.3L52,47.8v-1.8h3.4c0.2-0.4,0.4-0.9,0.6-1.3h-4v-1.3L56.8,43.4z"/>
		<path class="st0" d="M106.6,59.3l-2.9-5.2c-0.2-0.7-1-1.2-1.7-1.2H89.9l-1.2-21.5c0-1.4-1.1-2.6-2.5-2.6H74.5
			c-0.4,0.5-0.8,0.9-1.2,1.3h12.8c0.7,0,1.3,0.6,1.3,1.3c0,0,0,0,0,0.1l1.2,21.4h-2.5c0,0,0,0,0,0c0-2.5,0-7.9,0-7.9
			c0-7.4-5.9-12.8-12.7-14.7c-0.1,0-0.1,0-0.2,0c0,0,0,0-0.1,0c0,0,0,0,0,0c-0.1,0-0.2,0-0.3,0c-0.3,0-0.6,0.1-0.9,0.3l-2.7,2.2
			c-0.6,0.5-0.7,1.3-0.3,2l0.4,0.7l-1,3.2c0.4,0.1,0.8,0.2,1.2,0.3l1.1-3.7l-0.7-1.2c-0.1-0.1,0-0.2,0-0.3l2.7-2.2c0,0,0.1,0,0.1,0
			c0.1,0,0.1,0,0.1,0.1l1,3.9c0,0.1,0,0.2-0.1,0.2c0,0,0,0,0,0l-1.7-0.4l0.7,1.7c0,0.1,0,0.3-0.1,0.4l-1.8,2
			c0.4,0.2,0.8,0.4,1.2,0.6l1.6-1.7c0,0,0,0,0-0.1c0.3-0.3,0.4-0.8,0.3-1.2c0.3-0.1,0.6-0.2,0.8-0.5c0.3-0.3,0.4-0.8,0.2-1.2
			l-0.8-3.3c5.7,2,10.4,6.8,10.4,13.1c0,0,0,5.4,0,7.9l-6.6,0c-0.1,0.4-0.2,0.9-0.3,1.3h24c0.2,0,0.5,0.2,0.5,0.4l2.6,4.7H74.6
			c-0.1,0.1-0.2,0.2-0.3,0.2c0.9,0.3,1.8,0.6,2.6,1h18.3V68h-8.5c-0.3,0-0.6,0.3-0.6,0.6s0.3,0.6,0.6,0.6h8.5v1.3h-5.4
			c-0.3,0-0.6,0.3-0.6,0.6s0.3,0.6,0.6,0.6h5.4v13.9c0,0.7-0.6,1.3-1.3,1.3h-7.3c0,0.5,0,0.9,0,1.3c0,0,0,0,0,0H94
			c1.4,0,2.5-1.1,2.5-2.5V60.4h9.2C106.4,60.4,106.8,59.9,106.6,59.3L106.6,59.3z"/>
		<path class="st0" d="M37.8,85.7V71.8h5.4c0.3,0,0.6-0.3,0.6-0.6s-0.3-0.6-0.6-0.6h-5.4v-1.3h8.5c0.3,0,0.6-0.3,0.6-0.6
			S46.7,68,46.3,68h-8.5v-7.6h18.3c0.8-0.4,1.7-0.7,2.6-1c-0.1-0.1-0.2-0.2-0.3-0.2H28l2.6-4.7c0.1-0.2,0.4-0.4,0.5-0.4h24
			c-0.1-0.4-0.3-0.8-0.3-1.3h-6.6v-7.9c0-6.3,4.7-11,10.4-13.1l-0.8,3.3c-0.1,0.4,0,0.9,0.2,1.2c0.2,0.3,0.5,0.4,0.8,0.5
			c0,0.4,0.1,0.9,0.3,1.2c0,0,0,0,0,0.1l1.6,1.7c0.4-0.2,0.8-0.4,1.2-0.6l-1.8-2C60,37.1,60,37,60.1,36.9l0.7-1.7l-1.7,0.4
			c0,0,0,0,0,0c-0.1,0-0.1-0.1-0.1-0.2l1-3.9c0-0.1,0.1-0.1,0.1-0.1c0,0,0.1,0,0.1,0l2.7,2.2c0.1,0.1,0.1,0.2,0,0.3l-0.7,1.2
			l1.1,3.7c0.4-0.1,0.8-0.2,1.2-0.3l-1-3.2l0.4-0.7c0.4-0.6,0.3-1.5-0.3-2L61,30.4c-0.3-0.2-0.6-0.3-0.9-0.3h0c-0.1,0-0.2,0-0.3,0
			c0,0,0,0,0,0c0,0-0.1,0-0.1,0c0,0,0,0,0,0c-6.8,1.9-12.7,7.3-12.7,14.7v7.9h-2.5l1.2-21.4c0,0,0,0,0-0.1c0-0.7,0.6-1.3,1.3-1.3
			h12.8c-0.4-0.4-0.9-0.8-1.2-1.3H47c-1.4,0-2.5,1.1-2.5,2.6l-1.2,21.5H31.1c-0.7,0-1.5,0.5-1.7,1.2l-2.9,5.2
			c-0.2,0.7,0.1,1.2,0.8,1.2h9.2v25.3c0,1.4,1.1,2.5,2.5,2.5h7.3V87H39C38.3,87,37.8,86.4,37.8,85.7L37.8,85.7z"/>
	</g>
	<g>
		<path class="st1" d="M52.7,96.6l-21.2,7.3c-1.6,0.6-3.4-0.3-4-1.9l-9-25c-0.6-1.7,0.3-3.6,2-4.2l19.1-6.6c1.4-0.5,3,0.3,3.5,1.7
			L49.7,86c0,0,3.6,0,4.7,3.3C55.9,93.7,52.7,96.6,52.7,96.6z"/>
		<path class="st0" d="M32,76.4l9.4-3.3c0.3-0.1,0.5-0.5,0.4-0.8c-0.1-0.3-0.5-0.5-0.8-0.4l-9.4,3.3c-0.3,0.1-0.5,0.5-0.4,0.8
			C31.3,76.3,31.7,76.5,32,76.4L32,76.4z"/>
		<path class="st0" d="M32.9,78.8l6.1-2.2c0.3-0.1,0.5-0.5,0.4-0.8c-0.1-0.3-0.5-0.5-0.8-0.4l-6.1,2.2c-0.3,0.1-0.5,0.5-0.4,0.8
			C32.2,78.7,32.5,78.9,32.9,78.8z"/>
		<path class="st0" d="M35,84.9l9.4-3.3c0.3-0.1,0.5-0.5,0.4-0.8c-0.1-0.3-0.5-0.5-0.8-0.4l-9.4,3.3c-0.3,0.1-0.5,0.5-0.4,0.8
			C34.3,84.8,34.7,85,35,84.9L35,84.9z"/>
		<path class="st0" d="M35.9,87.3l6.1-2.2c0.3-0.1,0.5-0.5,0.4-0.8c-0.1-0.3-0.5-0.5-0.8-0.4l-6.1,2.2c-0.3,0.1-0.5,0.5-0.4,0.8
			C35.2,87.3,35.6,87.4,35.9,87.3z"/>
		<path class="st0" d="M50.1,85.2L44,68c-0.7-2-3-3.1-5-2.4l-3,1.1l-0.1-0.4c-0.3-0.8-1.2-1.3-2-1l-1,0.4l-0.5-1.6
			c-0.2-0.7-1-1-1.6-0.8L25.8,65c-0.7,0.2-1,1-0.8,1.6l0.5,1.6l-1,0.4c-0.8,0.3-1.3,1.2-1,2l0.1,0.4l-3,1.1c-2,0.7-3.1,3-2.4,5
			l8.8,24.9c0.7,2,3,3.1,5,2.4L50.4,98c0.1,0,0.2-0.1,0.4-0.2c0.1,0,0.3-0.1,0.4-0.1c3.4-1.2,5.1-4.9,3.9-8.2
			C54.3,87.2,52.3,85.6,50.1,85.2L50.1,85.2z M26.2,66.2l4.8-1.7c0,0,0,0,0,0l0.5,1.5l-4.8,1.7L26.2,66.2z M31.7,103.2
			c-1.4,0.5-3-0.2-3.5-1.7l-8.8-24.9c-0.5-1.4,0.2-3,1.7-3.5l3-1.1l0.1,0.3c0.3,0.8,1.2,1.3,2,1l9.2-3.3c0.8-0.3,1.3-1.2,1-2
			l-0.1-0.3l3-1.1c1.4-0.5,3,0.2,3.5,1.7l5.9,16.7c-0.6,0-1.2,0.1-1.9,0.4c-2.3,0.8-3.8,2.7-4.2,5l-5.1,1.8
			c-0.3,0.1-0.5,0.5-0.4,0.8c0.1,0.3,0.5,0.5,0.8,0.4l4.6-1.6c0,0.4,0.1,0.9,0.2,1.4l-4.3,1.5c-0.3,0.1-0.5,0.5-0.4,0.8
			c0.1,0.3,0.5,0.5,0.8,0.4l4.3-1.5c0.8,1.7,2.3,2.9,4,3.5L31.7,103.2z M50.8,96.5c-2.7,0.9-5.6-0.4-6.6-3.1c0,0,0-0.1,0-0.1
			c0,0,0,0,0-0.1c-0.9-2.7,0.5-5.6,3.2-6.6c2.7-1,5.7,0.5,6.7,3.2C54.9,92.6,53.5,95.6,50.8,96.5L50.8,96.5z"/>
		<path class="st0" d="M49.7,89.6l-1.2,1.5l-0.3,0.2L47.8,91c-0.4-0.3-1-0.3-1.3,0.1c-0.3,0.4-0.3,1,0.1,1.3l1.2,1
			c0.2,0.2,0.4,0.2,0.7,0.2c0.1,0,0.1,0,0.2,0c0.2-0.1,0.3-0.2,0.4-0.3l2-2.5c0.3-0.4,0.3-1-0.1-1.3C50.6,89.2,50,89.2,49.7,89.6
			L49.7,89.6z"/>
		<path class="st0" d="M27,75.6L23.1,77c-0.5,0.2-0.8,0.8-0.6,1.3l1.4,3.9c0.2,0.5,0.8,0.8,1.3,0.6l3.9-1.4c0.5-0.2,0.8-0.8,0.6-1.3
			l-1.4-3.9C28.1,75.7,27.5,75.4,27,75.6z M27.5,78.6l-1.4,1.7c-0.1,0.1-0.2,0.1-0.3,0.2c0,0-0.1,0-0.1,0c-0.2,0-0.3,0-0.4-0.1
			l-0.8-0.7c-0.2-0.2-0.3-0.6-0.1-0.8c0.2-0.2,0.6-0.3,0.8-0.1l0.3,0.3l1-1.3c0.2-0.3,0.6-0.3,0.8-0.1C27.6,78,27.7,78.3,27.5,78.6
			L27.5,78.6z"/>
		<path class="st0" d="M30,84.1l-3.9,1.4c-0.5,0.2-0.8,0.8-0.6,1.3l1.4,3.9c0.2,0.5,0.8,0.8,1.3,0.6l3.9-1.4
			c0.5-0.2,0.8-0.8,0.6-1.3l-1.4-3.9C31.1,84.2,30.5,83.9,30,84.1z M30.5,87.1l-1.4,1.7C29,88.9,28.9,89,28.8,89c0,0-0.1,0-0.1,0
			c-0.2,0-0.3,0-0.4-0.1l-0.8-0.7c-0.2-0.2-0.3-0.6-0.1-0.8c0.2-0.2,0.6-0.3,0.8-0.1l0.3,0.3l1-1.3c0.2-0.2,0.6-0.3,0.8-0.1
			C30.6,86.5,30.7,86.9,30.5,87.1L30.5,87.1z"/>
		<path class="st0" d="M33,92.6L29.1,94c-0.5,0.2-0.8,0.8-0.6,1.3l1.4,3.9c0.2,0.5,0.8,0.8,1.3,0.6l3.9-1.4c0.5-0.2,0.8-0.8,0.6-1.3
			l-1.4-3.9C34.1,92.7,33.5,92.5,33,92.6z M33.5,95.6l-1.4,1.7c-0.1,0.1-0.2,0.1-0.3,0.2c0,0-0.1,0-0.1,0c-0.2,0-0.3,0-0.4-0.1
			l-0.8-0.7c-0.2-0.2-0.3-0.6-0.1-0.8c0.2-0.2,0.6-0.3,0.8-0.1l0.3,0.3l1-1.3c0.2-0.3,0.6-0.3,0.8-0.1C33.7,95,33.7,95.4,33.5,95.6
			L33.5,95.6z"/>
	</g>
</g>
</svg>
