<?xml version="1.0" encoding="utf-8"?>
<!-- Generator: Adobe Illustrator 23.0.3, SVG Export Plug-In . SVG Version: 6.00 Build 0)  -->
<svg version="1.1" id="Layer_1" xmlns="http://www.w3.org/2000/svg" xmlns:xlink="http://www.w3.org/1999/xlink" x="0px" y="0px"
	 viewBox="0 0 122.9 120" style="enable-background:new 0 0 122.9 120;" xml:space="preserve">
<path d="M68.6,38.1c-0.6,0.4-1.5,0.6-2.3,0.6c-0.9,0-1.8-0.2-2.3-0.5c-0.4-0.3-1-0.2-1.3,0.2c-0.3,0.4-0.2,1,0.2,1.3
	c0.8,0.5,2,0.8,3.3,0.8c1.2,0,2.4-0.3,3.3-0.9c0.4-0.3,0.6-0.8,0.3-1.2C69.6,38,69,37.9,68.6,38.1z"/>
<path d="M63.9,35.7c1-0.7,2.1-1.1,3.1-1.1c1,0,2.1,0.4,3.2,1.1c0.4,0.3,1,0.2,1.3-0.2c0.3-0.4,0.2-1-0.2-1.3c-1.4-1-2.8-1.5-4.2-1.4
	c-1.4,0-2.8,0.5-4.1,1.4c-0.4,0.3-0.5,0.9-0.2,1.3C62.9,35.9,63.5,36,63.9,35.7z"/>
<path d="M114.5,71.2c-5.2-5.2-12.3-8.4-20.2-8.4c-7.5,0-14.3,2.9-19.4,7.6c-0.6-0.4-1.1-0.8-1.6-1.2c-1.1-1.3-2.1-2.7-3-4
	c-0.2-0.4-0.5-0.7-0.8-1.1c2.8-2.7,4.9-6.2,7-9.7l5.7-9.4c0,0,0.1-0.1,0.1-0.2c1.3-3,1.8-5.3,1.4-6.9c-0.4-1.4-1.3-2.3-2.7-2.7
	l0.3-13C79.8-1,42-11,34.2,17.1c-0.3,1.1-0.5,2.2-0.6,3.3c-0.2,4.6-0.1,10,0.2,14.4c-0.5,0.2-0.9,0.4-1.2,0.6
	c-0.8,0.5-1.3,1.2-1.7,2c-0.4,0.8-0.5,1.7-0.5,2.6c0,2.1,1,4.6,2.8,7.3l5,8c1.5,2.4,3.1,4.9,5,7.1c-0.4,1.3-1.1,3.2-1.9,4.9
	c-0.4,0.9-0.8,1.8-1.2,2.5c-6.4,4.9-23,6-29.3,9.5c-2.1,1.1-3.9,2.6-5.4,4.6C1.2,89.4,1,90.8,0,97.8c0.3,3.5,2.3,5.5,6.2,5.8h62.3
	c1.4,3,3.3,5.7,5.6,8c5.2,5.2,12.3,8.4,20.2,8.4c7.9,0,15-3.2,20.2-8.4c5.2-5.2,8.4-12.3,8.4-20.2C122.9,83.5,119.7,76.4,114.5,71.2
	z M50.3,12.6c0-0.5,0.4-0.8,0.8-0.8h3.7V8.1c0-0.5,0.4-0.9,0.9-0.9h2.5c0.5,0,0.8,0.4,0.8,0.9v3.7h3.7c0.5,0,0.9,0.4,0.9,0.8v2.5
	c0,0.5-0.4,0.8-0.9,0.8h-3.7v3.7c0,0.5-0.4,0.8-0.8,0.8h-2.5c-0.5,0-0.9-0.4-0.9-0.8V16h-3.7c-0.5,0-0.8-0.4-0.8-0.8V12.6z
	 M40.6,53.8l-5-8l0,0c-1.5-2.3-2.4-4.3-2.4-5.8c0-0.5,0.1-1,0.2-1.3c0.2-0.3,0.4-0.6,0.7-0.8c0.5-0.3,1.2-0.6,2.1-0.6l0.2,0.3
	l-0.2-0.5l2.2,0.2l0-0.1c1.3-17.7,31-13.8,37-5.4l0,0l0,0.1c0.6,0.9,1,1.8,1,2.8l1.2,3.4c0,0,0.1,0,0.1,0c0.3,0,0.5,0,0.8,0
	c0.2,0,0.5,0,0.7,0c1,0,1.7,0.3,1.8,0.9c0.2,1-0.1,2.6-1.2,5L74.2,53C64.9,68.3,53.3,74,40.6,53.8z M41.6,71.6
	c0.6-0.9,1.2-2.1,1.7-3.3c0.6-1.3,1.1-2.8,1.6-4c0.2,0.2,0.3,0.3,0.5,0.5c3,2.8,6.7,4.6,11.6,4.6c4.5,0,8-1.4,10.8-3.7
	c0.2,0.3,0.4,0.6,0.6,0.9c1.2,1.7,2.4,3.5,4,5.1C66.4,84.7,47.9,84.3,41.6,71.6z M110.9,108c-4.2,4.2-10.1,6.9-16.6,6.9
	S82,112.2,77.7,108c-4.2-4.2-6.9-10.1-6.9-16.6s2.6-12.4,6.9-16.6s10.1-6.9,16.6-6.9s12.3,2.6,16.6,6.9s6.9,10.1,6.9,16.6
	S115.2,103.7,110.9,108z"/>
<path d="M51.3,39.8c0.4-0.2,0.6-0.8,0.3-1.2s-0.8-0.6-1.2-0.3c-0.7,0.4-1.6,0.6-2.5,0.6c-0.9,0-1.8-0.2-2.3-0.5
	c-0.4-0.3-1-0.2-1.3,0.2c-0.3,0.4-0.2,1,0.2,1.3c0.8,0.5,2,0.8,3.3,0.8C49.1,40.6,50.4,40.3,51.3,39.8z"/>
<path d="M47.4,34.6c1,0,2.1,0.4,3.2,1.1c0.4,0.3,1,0.2,1.3-0.2c0.3-0.4,0.2-1-0.2-1.3c-1.4-1-2.8-1.5-4.2-1.4
	c-1.4,0-2.8,0.5-4.2,1.4c-0.4,0.3-0.5,0.9-0.2,1.3c0.3,0.4,0.8,0.5,1.3,0.2C45.3,35,46.4,34.6,47.4,34.6z"/>
<path d="M50.9,55.2c-0.1,0.5,0.2,1,0.7,1.2c1.8,0.4,3.6,0.7,5.4,0.7c1.8,0,3.6-0.2,5.4-0.7c0.5-0.1,0.8-0.6,0.7-1.2
	c-0.1-0.5-0.6-0.8-1.2-0.7c-1.7,0.4-3.3,0.6-5,0.6c-1.7,0-3.3-0.2-5-0.6C51.5,54.3,51,54.6,50.9,55.2z"/>
<g>
	<path d="M93.5,86.5l3.3,3.3c0.3,0.3,0.3,0.7,0,1c-0.3,0.3-0.7,0.3-1,0l-3.3-3.3l-1.4,1.4l3.3,3.3c0.3,0.3,0.3,0.7,0,1
		c-0.3,0.3-0.7,0.3-1,0l-3.3-3.3l-1.4,1.4l3.3,3.3c0.3,0.3,0.3,0.7,0,1c-0.3,0.3-0.7,0.3-1,0l-3.3-3.3l-1.4,1.4l3.3,3.3
		c0.3,0.3,0.3,0.7,0,1c-0.3,0.3-0.7,0.3-1,0l-3.3-3.3l-0.2,0.2l0,0c-0.6,0.6-0.9,1.4-0.9,2.3s0.3,1.7,0.9,2.3l0,0l0.9,0.9
		c0.1,0,0.2,0.1,0.2,0.1c0.1,0.1,0.1,0.1,0.1,0.2l1.1,1.1l0,0c0.5,0.5,1.3,0.8,2,0.8s1.4-0.3,2-0.8l0,0l10.6-10.6l-6.7-6.7
		L93.5,86.5L93.5,86.5z M96,83.1l0.7,0.7l3.8-3.8c-0.5-0.6-0.7-1.3-0.7-2c0-0.8,0.3-1.5,0.9-2.1l0,0l0,0c0.6-0.6,1.3-0.9,2.1-0.9
		s1.5,0.3,2.1,0.9l5.8,5.8c0.6,0.6,0.9,1.3,0.9,2.1h0c0,0.8-0.3,1.5-0.9,2.1l0,0c-0.6,0.6-1.3,0.9-2.1,0.9c-0.7,0-1.3-0.2-1.8-0.6
		l-3.8,3.8l0.6,0.6c0.1,0.1,0.1,0.1,0.1,0.2l1.4,1.4c0.3,0.3,0.3,0.7,0,1c-0.3,0.3-0.7,0.3-1,0l-1.1-1.1l-10.6,10.6l0,0
		c-0.8,0.8-1.8,1.2-2.9,1.2s-2.1-0.4-2.9-1.2l0,0l-0.8-0.8l-3.8,3.8c-0.3,0.3-0.7,0.3-1,0c-0.3-0.3-0.3-0.7,0-1l3.8-3.8l-0.6-0.6
		l0,0c-0.9-0.9-1.3-2-1.3-3.2c0-1.1,0.4-2.3,1.3-3.2l0,0l10.3-10.3l-1-1c-0.3-0.3-0.3-0.7,0-1c0.3-0.3,0.7-0.3,1,0l1.3,1.3
		C95.9,83,96,83.1,96,83.1L96,83.1z M109.6,82.9l-5.8-5.8c-0.3-0.3-0.6-0.4-1-0.4s-0.7,0.1-1,0.4l0,0l0,0c-0.3,0.3-0.4,0.6-0.4,1
		s0.1,0.7,0.4,1l0,0l5.8,5.8c0.3,0.3,0.6,0.4,1,0.4c0.4,0,0.7-0.1,1-0.4l0,0c0.3-0.3,0.4-0.6,0.4-1h0
		C110,83.5,109.8,83.1,109.6,82.9L109.6,82.9z M105.6,85.1l-4-4L98,84.8l4,4L105.6,85.1L105.6,85.1z"/>
</g>
</svg>
