<?xml version="1.0" encoding="utf-8"?>
<!-- Generator: Adobe Illustrator 23.0.3, SVG Export Plug-In . SVG Version: 6.00 Build 0)  -->
<svg version="1.1" id="Layer_1" xmlns="http://www.w3.org/2000/svg" xmlns:xlink="http://www.w3.org/1999/xlink" x="0px" y="0px"
	 viewBox="0 0 122.9 110.3" style="enable-background:new 0 0 122.9 110.3;" xml:space="preserve">
<style type="text/css">
	.st0{fill:#BBBDBF;}
	.st1{fill:#FFFFFF;stroke:#BBBDBF;stroke-width:1.6;stroke-miterlimit:10;}
</style>
<g>
	<g>
		<path class="st0" d="M34,46.2c0-1.2-1-2.2-2.2-2.2c-1.2,0-2.2,1-2.2,2.2v25.2H34v-4.2h34.8v4.2l4.3,0V58.4H34L34,46.2z"/>
		<path class="st0" d="M66.7,48.5H43.5v8.3h29.5v-1.9C73.1,51.4,70.2,48.5,66.7,48.5L66.7,48.5z"/>
		<path class="st0" d="M42.2,53.2c0,2-1.6,3.7-3.7,3.7c-2,0-3.7-1.6-3.7-3.7s1.6-3.7,3.7-3.7C40.6,49.5,42.2,51.2,42.2,53.2"/>
	</g>
	<g>
		<circle class="st1" cx="70.6" cy="55.9" r="21.4"/>
		<path class="st0" d="M59.9,53.3l-2.1,9.1c-0.5,2.3-0.1,4.8,1.1,6.8c1.3,2,3.3,3.5,5.6,4.1c0.5,0.2,1,0.2,1.5-0.1
			c0.4-0.3,0.7-0.8,0.7-1.3v-3.6c0-0.2-0.1-0.3-0.2-0.4c-0.2-0.1-0.3-0.3-0.4-0.4c-1.5-1.5-2.4-3.4-2.5-5.5
			c-0.1-1.4-0.2-2.9-0.2-4.3v-0.3c0-0.2,0.1-0.4,0.2-0.6c0.2-0.1,0.4-0.2,0.6-0.2c1.6,0.1,4.8-0.2,8.6-3.5h0
			c0.2-0.1,0.4-0.2,0.6-0.2s0.4,0.2,0.5,0.4c0.9,1.4,2.1,2.5,3.6,3.3c0.2,0.1,0.3,0.2,0.4,0.3c0.1,0.1,0.1,0.3,0.1,0.5l-0.1,4.1v0
			c-0.1,2.5-1.2,4.8-3.1,6.4c-0.1,0.1-0.2,0.3-0.2,0.4v2.8c0,0.6,0.2,1.1,0.6,1.5c0.4,0.4,1,0.6,1.5,0.6c2.3-0.6,4.3-2,5.6-4.1
			c1.3-2,1.7-4.5,1.1-6.8l-2.1-9.1c-0.5-2.3-1.7-4.5-3.5-6l1.5-5.6l0,0c0.1-0.3,0-0.5-0.1-0.8c-0.1-0.2-0.3-0.4-0.5-0.6
			c-2.5-1.3-5.3-2-8.2-2c-2.8,0-5.6,0.7-8.2,2c-0.2,0.1-0.4,0.3-0.5,0.6c-0.1,0.2-0.1,0.5-0.1,0.8l1.5,5.6
			C61.6,48.9,60.3,51,59.9,53.3L59.9,53.3z M66.8,44.6c0-0.4,0.3-0.6,0.6-0.6h2v-2c0-0.4,0.3-0.6,0.6-0.6h1.1h0
			c0.4,0,0.6,0.3,0.6,0.6v2h2c0.4,0,0.6,0.3,0.6,0.6v1.1c0,0.4-0.3,0.6-0.6,0.6h-2v2c0,0.4-0.3,0.6-0.6,0.6H70
			c-0.4,0-0.6-0.3-0.6-0.6v-2h-2c-0.4,0-0.6-0.3-0.6-0.6L66.8,44.6z"/>
	</g>
</g>
</svg>
