<?xml version="1.0" encoding="utf-8"?>
<!-- Generator: Adobe Illustrator 23.0.3, SVG Export Plug-In . SVG Version: 6.00 Build 0)  -->
<svg version="1.1" id="Layer_1" xmlns="http://www.w3.org/2000/svg" xmlns:xlink="http://www.w3.org/1999/xlink" x="0px" y="0px"
	 viewBox="0 0 122.9 110.3" style="enable-background:new 0 0 122.9 110.3;" xml:space="preserve">
<style type="text/css">
	.st0{fill:#FFFFFF;stroke:#BBBDBF;stroke-width:3.2;stroke-miterlimit:10;}
	.st1{fill:#BBBDBF;}
</style>
<g>
	<circle class="st0" cx="61.5" cy="55.9" r="42.8"/>
	<path class="st1" d="M40,50.7l-4.2,18.1c-1.1,4.7-0.3,9.6,2.2,13.7c2.5,4.1,6.5,7,11.2,8.1c0.9,0.5,2,0.4,2.9-0.1
		C53,90,53.5,89,53.5,88v-7.2c0-0.3-0.1-0.6-0.4-0.8c-0.3-0.3-0.6-0.5-0.9-0.8c-3-2.9-4.7-6.9-5-11c-0.2-2.9-0.4-5.8-0.4-8.7v-0.7
		c0-0.4,0.2-0.8,0.5-1.1c0.3-0.3,0.7-0.4,1.1-0.4c3.3,0.2,9.7-0.5,17.2-7h0c0.3-0.3,0.8-0.4,1.2-0.4c0.4,0.1,0.8,0.3,1.1,0.7
		c1.7,2.8,4.3,5.1,7.2,6.5c0.3,0.2,0.6,0.4,0.7,0.7c0.2,0.3,0.3,0.6,0.3,1L76,67.1v0c-0.1,5-2.4,9.6-6.2,12.8
		c-0.2,0.2-0.4,0.5-0.4,0.8v5.6c0,1.2,0.5,2.3,1.3,3.1c0.8,0.8,1.9,1.3,3.1,1.3c4.7-1.1,8.7-4,11.2-8.1c2.5-4.1,3.3-9,2.2-13.7
		L83,50.7c-0.9-4.7-3.4-8.9-7-12.1l3-11.3l0,0c0.1-0.5,0.1-1.1-0.1-1.5c-0.2-0.5-0.6-0.9-1.1-1.1c-5-2.6-10.6-3.9-16.3-3.9
		c-5.7,0-11.3,1.3-16.3,3.9c-0.5,0.2-0.9,0.6-1.1,1.1c-0.2,0.5-0.3,1-0.1,1.5l3,11.3C43.4,41.8,40.9,46,40,50.7L40,50.7z M53.8,33.3
		c0-0.7,0.6-1.3,1.3-1.3h4v-4c0-0.7,0.6-1.3,1.3-1.3h2.3h0c0.7,0,1.3,0.6,1.3,1.3v4h4c0.7,0,1.3,0.6,1.3,1.3v2.3
		c0,0.7-0.6,1.3-1.3,1.3h-4v4c0,0.7-0.6,1.3-1.3,1.3h-2.3c-0.7,0-1.3-0.6-1.3-1.3v-4h-4c-0.7,0-1.3-0.6-1.3-1.3L53.8,33.3z"/>
</g>
</svg>
