<?xml version="1.0" encoding="utf-8"?>
<!-- Generator: Adobe Illustrator 23.0.3, SVG Export Plug-In . SVG Version: 6.00 Build 0)  -->
<svg version="1.1" id="Layer_1" xmlns="http://www.w3.org/2000/svg" xmlns:xlink="http://www.w3.org/1999/xlink" x="0px" y="0px"
	 viewBox="0 0 122.9 110.3" style="enable-background:new 0 0 122.9 110.3;" xml:space="preserve">
<style type="text/css">
	.st0{fill:#BBBDBF;}
</style>
<g>
	<path class="st0" d="M92.6,76.4c0,2,0,4,0,6c-10.1,0-20.1,0-30.2,0c0,7.7,0,15.3,0,22.9c-4.1,0-8.1,0-12.1,0c0-7.6,0-15.2,0-22.9
		c-10.1,0-20.1,0-30.2,0c0-2.1,0-4,0-6.1C44.1,76.4,68.3,76.4,92.6,76.4z"/>
	<path class="st0" d="M70,75.3c-16.2,0-32.4,0-48.7,0c0.1-2.3-0.3-4.6,0.4-6.9c1.1-3.2,4-5.5,7.4-5.8c0.4,0,0.7,0,1.1,0
		c12.9,0,25.8,0,38.7,0c0.3,0,0.6,0,1,0C70,66.8,70,71,70,75.3z"/>
	<path class="st0" d="M80.3,40.5c-16.1,0-32.1,0-48.1,0c-1.1-3.3,1.6-7.2,5.2-7.5c1.7-0.1,3.4-0.1,5.1-0.1c3.2,0,6.3,0,9.5,0
		c0.4,0,0.7,0,1.2,0c0-9.1,0-18.1,0-27.2c2.1,0,4,0,6,0c0,9,0,18,0,27.2c0.5,0,0.9,0,1.3,0c4.5,0,9.1,0,13.6,0
		c4.1,0,6.8,3.2,6.3,7.2C80.5,40.3,80.4,40.4,80.3,40.5z"/>
	<path class="st0" d="M83.8,55.2c4.1,0,7.4,3.3,7.4,7.4c0,4.1-3.3,7.4-7.4,7.4c-4.1,0-7.4-3.3-7.4-7.4
		C76.4,58.5,79.7,55.2,83.8,55.2z"/>
	<path class="st0" d="M71.1,75.3c0-3.6,0-7.1,0-10.6c0-1.2,0.9-2,2.1-2.1c1.2,0,2.1,0.8,2.1,2c0.1,2.1,0,4.1,0,6.3
		c0.4,0,0.8,0.1,1.1,0.1c4,0,8,0,12,0c0.5,0,0.9,0,1.4,0.1c0.9,0.2,1.5,1.1,1.5,2c0,0.9-0.5,1.6-1.4,2c-0.3,0.1-0.6,0.2-1,0.2
		c-5.7,0-11.5,0-17.2,0C71.5,75.3,71.4,75.3,71.1,75.3z"/>
</g>
</svg>
