<?xml version="1.0" encoding="utf-8"?>
<!-- Generator: Adobe Illustrator 23.0.3, SVG Export Plug-In . SVG Version: 6.00 Build 0)  -->
<svg version="1.1" id="Layer_1" xmlns="http://www.w3.org/2000/svg" xmlns:xlink="http://www.w3.org/1999/xlink" x="0px" y="0px"
	 viewBox="0 0 122.9 110.3" style="enable-background:new 0 0 122.9 110.3;" xml:space="preserve">
<style type="text/css">
	.st0{fill:#BBBDBF;}
	.st1{fill:#FFFFFF;}
</style>
<g>
	<g>
		<path class="st0" d="M71.9,69.3c0-1.8-1.4-3.2-3.2-3.2h-25C43.1,66,42.5,66,41.9,66c-3.4,0-6.4,1.8-8.1,4.5
			c-1.5-0.8-2.9-1.7-4.1-3c-6.2-6.2-6.2-16.3,0-22.5c1.7-1.7,3.8-3,6-3.7c1.2,1.9,3.3,3.1,5.7,3.2l2.9,7.8c0.5,1.4,1.9,2.3,3.3,2.3
			c0.4,0,0.8-0.1,1.3-0.2l0.4-0.2l1,2.6c0.5,1.4,1.6,2.6,3,3.2c0.8,0.3,1.6,0.5,2.4,0.5c0.7,0,1.4-0.1,2-0.4
			c2.3-0.9,3.7-3.1,3.7-5.4c0-0.7-0.1-1.3-0.4-2l-1-2.6l0.4-0.2c0.9-0.3,1.6-1,2-1.9c0.4-0.9,0.4-1.8,0.1-2.7l-8-21.3
			c-0.3-0.9-1-1.6-1.9-2c-0.9-0.4-1.8-0.4-2.7-0.1l-0.9,0.4l-1.7-4.5l0.5-0.2c0.7-0.3,1.3-0.8,1.7-1.6c0.2-0.4,0.3-0.8,0.3-1.2
			c0-0.4-0.1-0.7-0.2-1.1c-0.6-1.5-2.3-2.3-3.9-1.8L35.3,16c-1.5,0.6-2.3,2.3-1.8,3.9c0.5,1.2,1.6,1.9,2.8,1.9
			c0.4,0,0.7-0.1,1.1-0.2l0.5-0.2l1.7,4.5l-1.3,0.5c-0.9,0.3-1.6,1-2,1.9c-0.4,0.9-0.4,1.8-0.1,2.7l0.5,1.4
			c-0.7,0.6-1.2,1.4-1.6,2.2c-3.8,1-7.3,3-10.1,5.8c-4.2,4.2-6.6,9.9-6.6,15.9c0,6,2.3,11.6,6.6,15.9c2.1,2.1,4.6,3.7,7.3,4.9v1.1
			h-6c-2.4,0-4.3,1.9-4.3,4.3v3l-7.4,0c-0.6,0-1.2,0.5-1.2,1.2c0,0.6,0.5,1.2,1.2,1.2h54.4c0.6,0,1.2-0.5,1.2-1.2
			c0-0.6-0.5-1.2-1.2-1.2h-7.3v-3c0-2.4-1.9-4.3-4.3-4.3h-6v-2.6c0-1-0.2-2-0.5-3h17.7C70.5,72.5,71.9,71.1,71.9,69.3L71.9,69.3z
			 M36.9,37.5c0-2.6,2.1-4.7,4.7-4.7c2.6,0,4.7,2.1,4.7,4.7c0,2.6-2.1,4.7-4.7,4.7C39,42.2,36.9,40.1,36.9,37.5z M40.1,20.7l5.1-1.9
			l1.6,4.4l-5.1,1.9L40.1,20.7z M38.5,30.2c-0.1-0.3-0.1-0.6,0-0.9c0.1-0.3,0.4-0.5,0.7-0.6l2.4-0.9h0l7.3-2.7h0l2-0.8
			c0.3-0.1,0.6-0.1,0.9,0c0.3,0.1,0.5,0.4,0.6,0.7l8,21.3c0.1,0.3,0.1,0.6,0,0.9c-0.1,0.3-0.4,0.5-0.7,0.6l-11.6,4.4
			c-0.6,0.2-1.3-0.1-1.6-0.7l-2.8-7.3c2.8-0.9,4.9-3.6,4.9-6.7c0-3.9-3.1-7-7-7c-1,0-1.9,0.2-2.8,0.6L38.5,30.2z M59.4,82.4v2.4h-35
			v-2.4c0-1.1,0.9-2,2-2h31C58.5,80.5,59.4,81.4,59.4,82.4L59.4,82.4z M34.7,78.1v-2.6c0-4,3.2-7.2,7.2-7.2s7.2,3.2,7.2,7.2v2.6
			H34.7z"/>
		<path class="st0" d="M43.9,37.5c0-1.3-1.1-2.4-2.4-2.4s-2.4,1.1-2.4,2.4c0,1.3,1.1,2.4,2.4,2.4S43.9,38.8,43.9,37.5L43.9,37.5z"/>
		<path class="st0" d="M41.9,71.4c-1.6,0-2.8,1.3-2.8,2.8c0,1.6,1.3,2.9,2.8,2.9c1.6,0,2.9-1.3,2.9-2.9
			C44.8,72.7,43.5,71.4,41.9,71.4z"/>
	</g>
	<g>
		<path class="st1" d="M94.7,81.6c0,3.2-0.3,8.4-2.9,11c-1.4,1.4-9.3,4.7-18.5,4.6c-8.2,0-14.9-1.7-18-5.1c-4-4.4-1.9-7.4-1.9-7.4
			c0-0.3-1.1-1.9-0.9-3.1c0.8-5.2,11.5-9.3,21.1-9.3C85.2,72.4,94.7,76.5,94.7,81.6z"/>
		<path class="st0" d="M95.3,82.2c0-6-9.5-10.7-21.7-10.7S52,76.2,52,82.2c0,0.9,0.2,1.7,0.6,2.5c-0.4,0.8-0.6,1.6-0.6,2.5
			c0,6,9.5,10.7,21.7,10.7s21.7-4.7,21.7-10.7c0-0.9-0.2-1.7-0.6-2.5C95.1,83.9,95.3,83,95.3,82.2L95.3,82.2z M53.4,82.2
			c0-5,9.3-9.3,20.3-9.3S94,77.1,94,82.2c0,0.3-0.1,0.8-0.1,1.1c-3.1-4-10.9-6.7-20.1-6.7s-17,2.7-20.1,6.7
			C53.4,82.9,53.4,82.5,53.4,82.2L53.4,82.2z M93.1,84.7c-2.5,3.9-10.4,6.8-19.5,6.8s-17-2.9-19.5-6.8c2.5-3.9,10.4-6.8,19.5-6.8
			S90.7,80.8,93.1,84.7z M93.9,87.2c0,5-9.3,9.3-20.3,9.3s-20.3-4.2-20.3-9.3c0-0.3,0.1-0.8,0.1-1.1c3.2,4,10.9,6.7,20.1,6.7
			s17-2.7,20.1-6.7C93.9,86.4,93.9,86.9,93.9,87.2L93.9,87.2z"/>
		<path class="st0" d="M73.5,80.9c-0.3-0.3-0.7-0.3-1,0l-0.9,0.9c-0.4-0.3-0.9-0.5-1.4-0.7v-1.4c0-0.4-0.3-0.7-0.7-0.7
			S69,79.3,69,79.7V81c-0.5,0.1-1.1,0.3-1.5,0.5l-1.2-1.2c-0.3-0.3-0.7-0.3-1,0c-0.3,0.3-0.3,0.7,0,1l1.2,1.2
			c-0.9,1.3-0.8,3,0.2,4.3l-0.9,0.9c-0.3,0.3-0.3,0.7,0,1c0.1,0.1,0.3,0.2,0.5,0.2s0.3-0.1,0.5-0.2l1-1c0.4,0.2,0.8,0.3,1.2,0.4v1.8
			c0,0.4,0.3,0.7,0.7,0.7s0.7-0.3,0.7-0.7V88c0.4-0.1,0.8-0.3,1.1-0.5l1.2,1.2c0.1,0.1,0.3,0.2,0.5,0.2s0.3-0.1,0.5-0.2
			c0.3-0.3,0.3-0.7,0-1l-1.2-1.2c0.8-1.1,0.8-2.5,0.1-3.8l1-1C73.8,81.6,73.8,81.1,73.5,80.9z M67.8,86.1c-0.9-0.9-0.9-2.3,0-3.1
			c0.4-0.4,1-0.6,1.6-0.6c0.5,0,1.2,0.2,1.6,0.6c0.9,0.9,0.9,2.3,0,3.1C70.1,87,68.7,87,67.8,86.1z"/>
		<path class="st0" d="M68.8,83.2c-0.5,0.5-0.5,1.3,0,1.8c0.2,0.2,0.5,0.3,0.9,0.3c0.3,0,0.6-0.1,0.9-0.3c0.5-0.5,0.5-1.3,0-1.8
			C70.2,82.8,69.3,82.8,68.8,83.2z M70.1,84.5c-0.2,0.2-0.6,0.2-0.8,0s-0.2-0.5,0-0.8c0.1-0.1,0.3-0.1,0.4-0.1
			c0.1,0,0.3,0.1,0.4,0.1C70.4,83.9,70.4,84.3,70.1,84.5z"/>
		<path class="st0" d="M75.7,85.4c0.3,0,0.6-0.1,0.9-0.3c0.5-0.5,0.5-1.3,0-1.8c-0.5-0.5-1.3-0.5-1.8,0c-0.5,0.5-0.5,1.3,0,1.8
			C75,85.2,75.3,85.4,75.7,85.4z M75.2,83.7c0.1-0.1,0.3-0.1,0.4-0.1s0.3,0.1,0.4,0.1c0.2,0.2,0.2,0.5,0,0.8c-0.2,0.2-0.6,0.2-0.8,0
			C75,84.3,75,83.9,75.2,83.7z"/>
		<path class="st0" d="M80.8,87.1c0.3,0,0.6-0.1,0.9-0.3c0.5-0.5,0.5-1.3,0-1.8c-0.5-0.5-1.3-0.5-1.8,0c-0.5,0.5-0.5,1.3,0,1.8
			C80.2,86.9,80.4,87.1,80.8,87.1z M80.4,85.4c0.1-0.1,0.3-0.1,0.4-0.1c0.1,0,0.3,0.1,0.4,0.1c0.2,0.2,0.2,0.5,0,0.8
			c-0.2,0.2-0.6,0.2-0.8,0C80.2,86,80.2,85.6,80.4,85.4z"/>
		<path class="st0" d="M85.9,85.4c0.3,0,0.6-0.1,0.9-0.3c0.5-0.5,0.5-1.3,0-1.8c-0.5-0.5-1.3-0.5-1.8,0c-0.5,0.5-0.5,1.3,0,1.8
			C85.3,85.2,85.5,85.4,85.9,85.4z M85.5,83.7c0.1-0.1,0.3-0.1,0.4-0.1c0.1,0,0.3,0.1,0.4,0.1c0.2,0.2,0.2,0.5,0,0.8
			c-0.2,0.2-0.6,0.2-0.8,0C85.3,84.3,85.3,83.9,85.5,83.7z"/>
		<path class="st0" d="M57.8,83.2c-0.5,0.5-0.5,1.3,0,1.8c0.2,0.2,0.5,0.3,0.9,0.3c0.3,0,0.6-0.1,0.9-0.3c0.5-0.5,0.5-1.3,0-1.8
			C59.1,82.8,58.3,82.8,57.8,83.2z M59.1,84.5c-0.2,0.2-0.6,0.2-0.8,0c-0.2-0.2-0.2-0.5,0-0.8c0.1-0.1,0.3-0.1,0.4-0.1
			c0.1,0,0.3,0.1,0.4,0.1C59.3,83.9,59.3,84.3,59.1,84.5z"/>
		<path class="st0" d="M78.2,82c0.3,0,0.6-0.1,0.9-0.3c0.2-0.2,0.3-0.5,0.3-0.9c0-0.3-0.1-0.7-0.3-1c-0.5-0.5-1.3-0.5-1.8,0
			C77.2,80,77,80.4,77,80.7s0.1,0.6,0.3,0.9C77.6,81.9,77.9,82,78.2,82z M77.8,80.2c0.1-0.1,0.3-0.1,0.4-0.1c0.1,0,0.3,0.1,0.4,0.1
			c0.1,0.1,0.1,0.3,0.1,0.4c0,0.1-0.1,0.3-0.1,0.4c-0.2,0.2-0.6,0.2-0.8,0c-0.1-0.1-0.1-0.3-0.1-0.4C77.7,80.5,77.8,80.4,77.8,80.2z
			"/>
	</g>
	<g>
		<path class="st0" d="M101.9,44.7l-4,2.2c-0.3-0.3-0.8-0.5-1.2-0.5c-0.5,0-0.9,0-1.3,0.3c-0.5,0.3-0.9,0.8-1,1.3
			c-0.2,0.6-0.1,1.2,0.2,1.7l-5.8,3.3v0c-0.1,0-0.1,0.1-0.2,0.1l-0.5,0.5l-1,1.1l-2.5,1.4c0,0,0,0,0,0v0c-0.1,0.1-0.3,0.2-0.4,0.3
			c0,0-0.1,0.1-0.1,0.1c-0.1,0.1-0.1,0.2-0.2,0.3c0,0-0.1,0.1-0.1,0.2c-0.1,0.1-0.1,0.2-0.1,0.3c0,0.1,0,0.1-0.1,0.2
			c0,0.1-0.1,0.3-0.1,0.4c0,0,0,0,0,0v0c0,0.3,0,0.6,0.1,0.8c0,0.1,0,0.1,0.1,0.1c0,0,0,0,0,0.1l-2,4c-0.2,0.4-0.3,0.9-0.3,1.3v0.2
			c0,1.1,0.6,2,1.5,2.6c0.9,0.5,2,0.5,2.9,0c0.9-0.5,1.5-1.5,1.5-2.6v-0.2c0-0.5-0.1-0.9-0.3-1.3l-1.3-2.6c0,0,0.1,0,0.1,0
			c0.2,0,0.3,0,0.5-0.1c0,0,0.1,0,0.1,0c0,0,0.1,0,0.1,0c0.1,0,0.3-0.1,0.4-0.2l2.5-1.4l2.2-0.4c0.1,0,0.2,0,0.2-0.1l5.8-3.3v0
			c0.3,0.6,1,1,1.6,1.1c0.7,0.1,1.4-0.2,1.9-0.7c0.5-0.5,0.7-1.2,0.6-1.9l4-2.2h0c0.9-0.5,1.5-1.3,1.8-2.2c0.3-0.9,0.2-2-0.3-2.8
			c-0.5-0.9-1.3-1.5-2.2-1.7C103.8,44,102.8,44.2,101.9,44.7L101.9,44.7z M96.6,53.3h-5.6l4.2-2.4L96.6,53.3z M87.9,55.9
			c0.1,0,0.1-0.1,0.2-0.1l0.9-1h5.4l-3.4,1.9l-2.2,0.4h0c-0.1,0-0.2,0-0.2,0.1l-2.6,1.4c-0.1,0-0.1,0.1-0.2,0.1c0,0-0.1,0-0.1,0
			c0,0-0.1,0-0.1,0c0,0-0.1,0-0.1,0c-0.1,0-0.1,0-0.2-0.1c0,0,0,0-0.1,0c-0.1-0.1-0.1-0.1-0.2-0.2l0,0v0c0-0.1-0.1-0.1-0.1-0.2
			c0,0,0-0.1,0-0.1c0-0.1,0-0.1,0-0.2c0,0,0,0,0,0c0-0.1,0.1-0.2,0.1-0.2c0,0,0,0,0,0c0.1-0.1,0.1-0.1,0.2-0.2L87.9,55.9z
			 M85.8,64.4c0,0.5-0.3,1-0.7,1.3c-0.5,0.3-1,0.3-1.5,0c-0.5-0.3-0.7-0.7-0.7-1.3v-0.2c0-0.2,0.1-0.5,0.2-0.7l1.3-2.6l1.3,2.6v0
			c0.1,0.2,0.2,0.4,0.2,0.7L85.8,64.4z M100.1,53.9c-0.1,0.3-0.3,0.5-0.6,0.5c-0.3,0-0.6-0.1-0.7-0.4l-0.4-0.6l-1.1-1.9l-1.4-2.6v0
			c-0.2-0.4-0.1-0.8,0.3-1c0.4-0.2,0.8-0.1,1,0.3l2.9,5.1C100.1,53.5,100.1,53.7,100.1,53.9L100.1,53.9z M105.8,48.5L105.8,48.5
			c-0.2,0.6-0.5,1-1,1.3l-3.9,2.2l-2.2-3.9l3.8-2.2v0c0.5-0.3,1.1-0.4,1.7-0.2c0.6,0.2,1,0.5,1.3,1C105.9,47.3,106,47.9,105.8,48.5
			L105.8,48.5z"/>
		<path class="st0" d="M78.4,65.1v0.7c0,1.2,0.5,2.3,1.3,3.1c0.8,0.8,2,1.3,3.1,1.3v-1.5c-0.8,0-1.5-0.3-2.1-0.9
			c-0.6-0.6-0.9-1.3-0.9-2.1v-0.7H78.4z"/>
	</g>
</g>
</svg>
