<?xml version="1.0" encoding="utf-8"?>
<!-- Generator: Adobe Illustrator 23.0.3, SVG Export Plug-In . SVG Version: 6.00 Build 0)  -->
<svg version="1.1" id="Layer_1" xmlns="http://www.w3.org/2000/svg" xmlns:xlink="http://www.w3.org/1999/xlink" x="0px" y="0px"
	 viewBox="0 0 122.9 110.3" style="enable-background:new 0 0 122.9 110.3;" xml:space="preserve">
<style type="text/css">
	.st0{fill:none;stroke:#58595B;stroke-width:3.251;stroke-miterlimit:10;}
	.st1{clip-path:url(#SVGID_2_);fill:#58595B;}
</style>
<g>
	<circle class="st0" cx="57.9" cy="54.2" r="43.5"/>
	<g>
		<defs>
			<circle id="SVGID_1_" cx="57.9" cy="54.2" r="43.5"/>
		</defs>
		<clipPath id="SVGID_2_">
			<use xlink:href="#SVGID_1_"  style="overflow:visible;"/>
		</clipPath>
		<path class="st1" d="M92,84.4c-1.5-5.1-3.4-8.3-5.4-10.4c-3.2-3.4-6.3-3.7-7.3-3.9c-0.2,0-0.4-0.1-0.5-0.1
			c-0.6-0.5-1.1-1.3-1.4-2.2c-0.9-2.3-1.2-5.5-1.1-8.7c0-5.8,1.1-11.5,1.1-11.5v0c0-0.8,0-1.6,0-2.3c0-0.2,0-0.5,0-0.7
			c0-0.5-0.1-1-0.1-1.5c0-0.3,0-0.5-0.1-0.8c0-0.4-0.1-0.9-0.2-1.3c0-0.2-0.1-0.5-0.1-0.7c-0.1-0.4-0.1-0.9-0.2-1.3
			c0-0.2-0.1-0.4-0.1-0.6c-0.1-0.6-0.2-1.1-0.4-1.7c0,0,0,0,0-0.1c-0.1-0.6-0.3-1.1-0.5-1.6c-0.1-0.2-0.1-0.3-0.2-0.4
			c-0.1-0.3-0.2-0.7-0.4-1c-0.1-0.2-0.1-0.3-0.2-0.5c-0.1-0.3-0.3-0.6-0.4-0.9c-0.1-0.2-0.1-0.3-0.2-0.5c-0.1-0.3-0.3-0.6-0.4-0.8
			c-0.1-0.1-0.1-0.3-0.2-0.4c-0.2-0.3-0.4-0.7-0.6-1c0,0,0-0.1-0.1-0.1c-0.2-0.3-0.5-0.7-0.7-1c-0.1-0.1-0.1-0.2-0.2-0.3
			c-0.2-0.2-0.4-0.4-0.5-0.6c-0.1-0.1-0.2-0.2-0.3-0.3c-0.2-0.2-0.3-0.3-0.5-0.5c-0.1-0.1-0.2-0.2-0.3-0.3c-0.2-0.2-0.4-0.3-0.5-0.5
			c-0.1-0.1-0.2-0.1-0.3-0.2c-0.2-0.2-0.5-0.4-0.7-0.5c0,0-0.1-0.1-0.1-0.1c-0.3-0.2-0.5-0.4-0.8-0.5c-0.1,0-0.2-0.1-0.2-0.1
			c-0.2-0.1-0.4-0.2-0.6-0.3c-0.1-0.1-0.2-0.1-0.3-0.2c-0.2-0.1-0.3-0.2-0.5-0.2c-0.1,0-0.2-0.1-0.3-0.1c-0.2-0.1-0.3-0.1-0.5-0.2
			c-0.1,0-0.2-0.1-0.3-0.1c-0.2-0.1-0.4-0.1-0.6-0.2c-0.1,0-0.1,0-0.2-0.1c-0.3-0.1-0.5-0.1-0.7-0.2c-0.1,0-0.2,0-0.2,0
			c-0.2,0-0.3-0.1-0.5-0.1c-0.1,0-0.2,0-0.3,0c-0.1,0-0.3,0-0.4-0.1c-0.1,0-0.2,0-0.3,0c-0.1,0-0.3,0-0.4,0c-0.1,0-0.2,0-0.2,0
			c-0.1,0-0.3,0-0.4,0c-0.1,0-0.1,0-0.2,0c-0.2,0-0.3,0-0.5,0c-0.1,0-0.1,0-0.2,0h-0.2c-0.4,0-0.7,0-0.9,0c0,0,0,0-0.1,0
			c-0.1,0-0.1,0-0.2,0c0,0,0,0,0,0c0,0-0.1,0-0.1,0c-0.2,0-0.5,0-0.7,0c-0.2,0-0.4,0-0.7,0c0,0,0,0-0.1,0c0,0,0,0,0,0
			c0,0-0.1,0-0.2,0c0,0,0,0-0.1,0c-0.2,0-0.5,0-0.9,0h-0.2c-0.1,0-0.1,0-0.2,0c-0.2,0-0.3,0-0.5,0c-0.1,0-0.1,0-0.2,0
			c-0.1,0-0.3,0-0.4,0c-0.1,0-0.2,0-0.2,0c-0.1,0-0.3,0-0.4,0c-0.1,0-0.2,0-0.2,0c-0.1,0-0.3,0-0.4,0.1c-0.1,0-0.2,0-0.2,0
			c-0.2,0-0.4,0.1-0.5,0.1c-0.1,0-0.1,0-0.2,0c-0.2,0.1-0.5,0.1-0.8,0.2c0,0-0.1,0-0.1,0c-0.2,0.1-0.4,0.1-0.6,0.2
			c-0.1,0-0.2,0.1-0.3,0.1c-0.2,0.1-0.4,0.1-0.5,0.2c-0.1,0-0.2,0.1-0.3,0.1c-0.2,0.1-0.4,0.2-0.5,0.3c-0.1,0-0.2,0.1-0.3,0.1
			c-0.2,0.1-0.4,0.2-0.6,0.3c-0.1,0-0.1,0.1-0.2,0.1c-0.3,0.2-0.5,0.3-0.8,0.5c0,0,0,0-0.1,0.1c-0.2,0.2-0.5,0.4-0.7,0.5
			c-0.1,0.1-0.2,0.1-0.2,0.2c-0.2,0.2-0.4,0.3-0.6,0.5c-0.1,0.1-0.2,0.2-0.3,0.3c-0.2,0.2-0.3,0.3-0.5,0.5c-0.1,0.1-0.2,0.2-0.3,0.3
			c-0.2,0.2-0.4,0.4-0.5,0.6c-0.1,0.1-0.1,0.2-0.2,0.2c-0.2,0.3-0.5,0.6-0.7,1c0,0,0,0.1,0,0.1c-0.2,0.3-0.4,0.7-0.6,1
			c-0.1,0.1-0.1,0.2-0.2,0.4c-0.1,0.3-0.3,0.6-0.4,0.8c-0.1,0.1-0.1,0.3-0.2,0.5c-0.1,0.3-0.3,0.6-0.4,0.9c-0.1,0.2-0.1,0.3-0.2,0.5
			c-0.1,0.3-0.3,0.7-0.4,1c0,0.1-0.1,0.3-0.1,0.4c-0.2,0.5-0.3,1-0.5,1.6c0,0,0,0,0,0.1c-0.1,0.5-0.3,1.1-0.4,1.6
			c0,0.2-0.1,0.4-0.1,0.6c-0.1,0.4-0.2,0.8-0.2,1.3c0,0.2-0.1,0.5-0.1,0.7c-0.1,0.4-0.1,0.9-0.2,1.3c0,0.2,0,0.5-0.1,0.8
			c0,0.5-0.1,1-0.1,1.5c0,0.2,0,0.5,0,0.7c0,0.8,0,1.5,0,2.3c0,0,1,5.7,1.1,11.5c0,3.2-0.2,6.5-1.1,8.7c-0.4,0.9-0.8,1.7-1.4,2.2
			c-0.2,0-0.4,0.1-0.5,0.1c-1,0.2-4.1,0.5-7.3,3.9c-1.9,2.1-3.9,5.3-5.4,10.4c-0.1,0.5-0.2,0.9-0.3,1.4c-0.1,1.4,0.1,2.8,0.8,4
			c3.2,6,20,7.9,33.6,7.9c13.6,0,30.4-1.9,33.6-7.9c0.6-1.2,0.9-2.6,0.8-4C92.2,85.4,92.2,84.9,92,84.4L92,84.4z M43,46.5
			c0.1-0.1,0.2-0.1,0.3-0.1c0.1,0,0.2,0,0.3,0c0,0,0.1,0,0.1,0c0.1,0,0.2,0.1,0.3,0.2c0,0,0,0,0,0c0,0,0-0.1,0-0.2v0
			c0-0.1,0-0.2,0-0.4c0,0,0,0,0,0c0-0.1,0-0.3,0.1-0.5c0,0,0,0,0,0c0-0.2,0.1-0.4,0.1-0.5c0,0,0,0,0-0.1c0-0.2,0.1-0.4,0.2-0.6
			c0,0,0,0,0-0.1c0.1-0.2,0.1-0.4,0.2-0.7c0,0,0-0.1,0-0.1c0.1-0.2,0.2-0.5,0.2-0.7c0,0,0-0.1,0-0.1c0.1-0.2,0.2-0.5,0.3-0.7
			c0,0,0-0.1,0-0.1c0.1-0.2,0.2-0.5,0.4-0.7c0,0,0-0.1,0.1-0.1c0.1-0.2,0.3-0.5,0.4-0.7c0,0,0-0.1,0.1-0.1c0.2-0.2,0.3-0.4,0.5-0.6
			c0,0,0,0,0.1-0.1c0.2-0.2,0.4-0.4,0.6-0.6c0,0,0,0,0.1,0c0.2-0.2,0.4-0.3,0.7-0.5c0,0,0,0,0.1,0c0.2-0.1,0.5-0.3,0.8-0.4
			c0,0,0,0,0,0c0.3-0.1,0.6-0.2,0.9-0.2h0c0.3-0.1,0.7-0.1,1-0.1c0,0,0,0,0.1,0c0.2,0,0.4,0,0.6,0L71.2,48l1.6-1.5c0,0,0.1,0,0.2,0
			c0.7,0.3,1,2,0.7,3.8c-0.3,1.4-0.8,2.6-1.4,3.1c-0.1,0.1-0.2,0.1-0.3,0.2c0,0,0,0,0,0c-0.1,0-0.2,0.1-0.3,0.1c0,0-0.1,0-0.1,0
			c-0.1,0-0.3-0.1-0.4-0.2c-1.3,4.1-3.8,8.2-7,10.6c-1.9,1.4-3.9,2.3-6.1,2.3c-2.2,0-4.3-0.9-6.2-2.3c-3.2-2.4-5.7-6.5-7-10.6
			c-0.1,0.1-0.2,0.2-0.4,0.2c-0.1,0-0.1,0-0.2,0c0,0,0,0-0.1,0c0,0-0.1,0-0.1,0c0,0,0,0-0.1,0c0,0-0.1,0-0.1-0.1c0,0,0,0-0.1,0
			c-0.1,0-0.1-0.1-0.2-0.2c-0.6-0.6-1.1-1.7-1.3-3C42.1,48.5,42.3,47,43,46.5L43,46.5z M44.5,90.7c-0.3,0.2-0.6,0.4-1,0.4h-1.7
			c-0.9,0-1.6-0.7-1.6-1.6c0-0.9,0.7-1.6,1.6-1.6h1.7c0.2,0,0.4,0,0.5,0.1c0.1,0,0.1-0.1,0.1-0.1c0.2-0.3,0.2-1.8,0.2-2.5
			c0-1.4-0.3-3.1-1-4.6c-0.3-0.2-0.6-0.4-0.7-0.8c-1.1-2.2-2.5-3.6-3.7-3.6c-1.2,0-2.7,1.5-3.8,3.8c-0.2,0.4-0.5,0.7-0.8,0.9
			c-0.6,1.5-0.9,3-0.9,4.3c0,0.6,0,2.1,0.2,2.5c0,0,0,0,0.2,0.1c0.2-0.1,0.4-0.1,0.6-0.1h1.7c0.8,0,1.5,0.7,1.6,1.5l0,0l0,0
			c0,0.9-0.7,1.6-1.6,1.6h-1.7c-0.3,0-0.7-0.1-1-0.3c-1-0.2-1.7-0.6-2.1-1.3c-0.5-0.9-0.6-2-0.6-3.9c0-1.7,0.4-3.6,1.1-5.5
			c-0.1-0.4-0.1-0.8,0.1-1.2c0.7-1.6,1.7-3,2.7-4c0.6-0.5,1.2-1,1.8-1.3c0.2-0.5,0.6-1,1.1-1.3c0.3-1.5,1.1-3,2.3-4.3
			c1.6-1.7,3.7-2.7,5.8-2.7h0.4v0c0.7,0,1.3,0.6,1.3,1.4c0,0.7-0.6,1.3-1.3,1.4v0h-0.1h0h0l-0.3,0c-2.6,0-4.7,2.5-5.3,4.4
			c0.4,0.3,0.7,0.6,0.9,1.1c1.8,0.8,3.4,2.6,4.6,5.1c0.2,0.4,0.2,0.9,0.1,1.3c0.7,1.9,1.1,3.9,1.1,5.6
			C47.1,87.8,47.1,90.1,44.5,90.7L44.5,90.7z M57.9,75.9c-5.6,0-10.4-3.1-12.1-5.3c-0.4-0.5-0.6-0.9-0.6-1.5c0.1,0,0.3-0.1,0.5-0.2
			c0.1,0,0.2-0.1,0.3-0.2c1-0.5,2.5-1.7,2.5-3.6c1.6,1.6,3.4,2.9,5.3,3.6c1.3,0.5,2.6,0.8,4,0.8c1.4,0,2.7-0.3,4-0.8
			c1.9-0.8,3.7-2,5.3-3.6c0,0,0,0,0,0c0,2.5,2.6,3.7,3.3,3.9c0,0,0,0,0,0c-0.1,0.5-0.3,1-0.6,1.5C68.3,72.8,63.6,75.9,57.9,75.9
			L57.9,75.9z M75.5,90.1c0,0.3-0.3,0.5-0.6,0.5h-3.2v3.2c0,0.3-0.2,0.6-0.5,0.6l-3.1,0c-0.3,0-0.5-0.3-0.5-0.6v-3.2h-3.2
			c-0.3,0-0.6-0.2-0.6-0.5V87c0-0.3,0.3-0.5,0.6-0.5h3.2v-3.2c0-0.3,0.2-0.6,0.5-0.6h3.1c0.3,0,0.5,0.3,0.5,0.6v3.2h3.2
			c0.3,0,0.6,0.2,0.6,0.5L75.5,90.1z M79.4,79c-0.8,1.5-2.4,2.5-4.1,2.5c-0.8,0-1.5-0.2-2.2-0.6c-2.3-1.2-3.1-4-1.9-6.3
			c0.6-1.1,1.6-1.9,2.8-2.2c-0.4-1.6-1.5-3.5-3.5-4.2L70,68c0,0-0.1,0-0.1,0l-0.1,0l0,0c-0.4-0.2-0.7-0.7-0.7-1.2
			c0-0.8,0.6-1.4,1.4-1.4c0.1,0,0.1,0,0.2,0l0,0l0.1,0c0.1,0,0.2,0.1,0.3,0.1l0.3,0.1c2,0.7,3.7,2.2,4.7,4.4
			c0.4,0.8,0.6,1.6,0.8,2.5c0.2,0.1,0.5,0.2,0.7,0.3C79.7,73.9,80.6,76.7,79.4,79L79.4,79z"/>
	</g>
</g>
</svg>
