<?xml version="1.0" encoding="utf-8"?>
<!-- Generator: Adobe Illustrator 23.0.3, SVG Export Plug-In . SVG Version: 6.00 Build 0)  -->
<svg version="1.1" id="Layer_1" xmlns="http://www.w3.org/2000/svg" xmlns:xlink="http://www.w3.org/1999/xlink" x="0px" y="0px"
	 viewBox="0 0 122.9 110.3" style="enable-background:new 0 0 122.9 110.3;" xml:space="preserve">
<style type="text/css">
	.st0{fill:#BBBDBF;}
</style>
<g>
	<path class="st0" d="M41.1,40.8h32.4V55H41.1V40.8z"/>
	<path class="st0" d="M57.4,32.8c1.6,0,3-0.9,3.8-2.3h25.8l0-1.1H61.6c0-0.1,0-0.1,0-0.2h24.9l0-22.6H28.2v22.6h8.1v-1.9h5.1v1.9
		h11.8c0,0.1,0,0.1,0,0.2H27.8l0,1.1h25.8C54.3,31.9,55.8,32.8,57.4,32.8L57.4,32.8z M53.1,28.2H42.3v-1.9h-6.9v1.9h-6.2V7.4h56.5
		v20.8h-24c-0.1-2.3-2-4-4.3-4C55.1,24.2,53.2,26,53.1,28.2L53.1,28.2z"/>
	<path class="st0" d="M36.5,28.9h4.7v0.2h-4.7L36.5,28.9z"/>
	<path class="st0" d="M36.8,27.8h4v0.6h-4V27.8z"/>
	<path class="st0" d="M51.6,37.4l0.7,2.6h10.1l0.7-2.6l0.3,2.6h2.2c0.1-3,0-4.2-0.1-4.7c-0.2-0.9-3.3-1.8-6-2.1l-4.2,0
		c-2.7,0.3-5.9,1.2-6.1,2.1C49.1,35.8,49,37,49.1,40h2.2L51.6,37.4z"/>
	<path class="st0" d="M39,98.6h-4.8c-1.3,0-2.3,1.1-2.3,2.3v4.3h9.5V101C41.3,99.7,40.3,98.6,39,98.6z"/>
	<path class="st0" d="M52.5,98.6h-4.8c-1.3,0-2.3,1.1-2.3,2.3l0,4.3h9.5V101C54.9,99.7,53.8,98.6,52.5,98.6L52.5,98.6z"/>
	<path class="st0" d="M67,98.6h-4.8c-1.3,0-2.3,1.1-2.3,2.3v4.3h9.5V101C69.4,99.7,68.3,98.6,67,98.6z"/>
	<path class="st0" d="M80.6,98.6h-4.8c-1.3,0-2.3,1.1-2.3,2.3v4.3h9.5V101C82.9,99.7,81.9,98.6,80.6,98.6z"/>
	<path class="st0" d="M40.3,94.2c0,2-1.6,3.7-3.7,3.7c-2,0-3.7-1.6-3.7-3.7c0-2,1.6-3.7,3.7-3.7C38.6,90.5,40.3,92.2,40.3,94.2"/>
	<path class="st0" d="M53.8,94.2c0,2-1.6,3.7-3.7,3.7c-2,0-3.7-1.6-3.7-3.7c0-2,1.6-3.7,3.7-3.7C52.1,90.5,53.8,92.2,53.8,94.2"/>
	<path class="st0" d="M74.5,93.5c0,2,1.7,3.7,3.7,3.7c2,0,3.7-1.6,3.7-3.7c0-2-1.6-3.7-3.7-3.7c-0.7,0-1.4,0.2-2,0.6v-4.2
		c0-1.3-1.1-2.3-2.3-2.3H69c-1.3,0-2.3,1.1-2.3,2.3v4.3h9.4C75.1,91.1,74.5,92.2,74.5,93.5L74.5,93.5z"/>
	<path class="st0" d="M68.3,94.2c0,2-1.6,3.7-3.7,3.7c-2,0-3.7-1.6-3.7-3.7c0-2,1.6-3.7,3.7-3.7C66.7,90.5,68.3,92.2,68.3,94.2"/>
	<path class="st0" d="M48.1,86.1c0-1.3-1-2.3-2.3-2.3h-4.8c-1.3,0-2.3,1.1-2.3,2.3v4.3h9.5L48.1,86.1L48.1,86.1z"/>
	<path class="st0" d="M61.6,86.1c0-1.3-1-2.3-2.3-2.3h-4.8c-1.3,0-2.3,1.1-2.3,2.3v4.3h9.5L61.6,86.1L61.6,86.1z"/>
	<path class="st0" d="M47,79.4c0,2-1.6,3.7-3.7,3.7c-2,0-3.7-1.6-3.7-3.7c0-2,1.6-3.7,3.7-3.7C45.4,75.7,47,77.3,47,79.4"/>
	<path class="st0" d="M60.6,79.4c0,2-1.6,3.7-3.7,3.7c-2,0-3.7-1.6-3.7-3.7c0-2,1.6-3.7,3.7-3.7C58.9,75.7,60.6,77.3,60.6,79.4"/>
	<path class="st0" d="M75.1,79.4c0,2-1.6,3.7-3.7,3.7c-2,0-3.7-1.6-3.7-3.7c0-2,1.6-3.7,3.7-3.7C73.4,75.7,75.1,77.3,75.1,79.4"/>
</g>
</svg>
