<?xml version="1.0" encoding="utf-8"?>
<!-- Generator: Adobe Illustrator 23.0.3, SVG Export Plug-In . SVG Version: 6.00 Build 0)  -->
<svg version="1.1" id="Layer_1" xmlns="http://www.w3.org/2000/svg" xmlns:xlink="http://www.w3.org/1999/xlink" x="0px" y="0px"
	 viewBox="0 0 122.9 110.3" style="enable-background:new 0 0 122.9 110.3;" xml:space="preserve">
<style type="text/css">
	.st0{fill:#BBBDBF;}
</style>
<g>
	<path class="st0" d="M34.2,72.6h53.9v23.5H34.2V72.6z"/>
	<path class="st0" d="M61.1,59.2c2.7,0,5.1-1.5,6.3-3.8h42.9l0-1.9H68.1c0-0.1,0-0.2,0.1-0.3h41.5l0-37.6h-97v37.6h13.4V50h8.5v3.2
		h19.6c0,0.1,0,0.2,0.1,0.3H12l0,1.9h42.9C56.1,57.7,58.5,59.2,61.1,59.2L61.1,59.2z M54.1,51.6h-18v-3.2H24.6v3.2H14.2V17.1h93.9
		v34.5H68.2C68,47.9,64.9,45,61.1,45C57.4,45,54.3,47.9,54.1,51.6L54.1,51.6z"/>
	<path class="st0" d="M26.4,52.9h7.8v0.3h-7.8L26.4,52.9z"/>
	<path class="st0" d="M27,50.9h6.6v1H27L27,50.9z"/>
	<path class="st0" d="M51.6,66.8l1.2,4.4h16.8l1.2-4.4l0.5,4.4h3.7c0.2-4.9,0-7-0.2-7.9c-0.3-1.4-5.6-3-10-3.5l-7,0
		c-4.5,0.5-9.8,2.1-10.1,3.5c-0.2,0.9-0.4,3-0.2,7.9h3.7L51.6,66.8z"/>
</g>
</svg>
