<?xml version="1.0" encoding="utf-8"?>
<!-- Generator: Adobe Illustrator 23.0.3, SVG Export Plug-In . SVG Version: 6.00 Build 0)  -->
<svg version="1.1" id="Layer_1" xmlns="http://www.w3.org/2000/svg" xmlns:xlink="http://www.w3.org/1999/xlink" x="0px" y="0px"
	 viewBox="0 0 122.9 110.3" style="enable-background:new 0 0 122.9 110.3;" xml:space="preserve">
<style type="text/css">
	.st0{fill:#BBBDBF;}
</style>
<g>
	<path class="st0" d="M120.6,58.9c0,0,0-0.1-0.1-0.1c-0.2-0.2-4-5.4-11.8-5.4c-2.9,0-6,0.8-9.2,2.2l0-28.5c0-1.7-1.4-3.1-3.1-3.1
		H57.3v-6.1c0-0.3-0.2-0.6-0.4-0.7c-0.3-0.1-0.6-0.2-0.8,0l-2.8,1.5l-2.7-1.5c-0.3-0.1-0.6-0.1-0.8,0c-0.3,0.2-0.4,0.4-0.4,0.7V24
		h-0.8c-1.7,0-3.1,1.4-3.1,3.1v69.7c0,1.7,1.4,3.1,3.1,3.1h48.1c1.7,0,3.1-1.4,3.1-3.1l0-14.6c0-0.5-0.4-0.8-0.8-0.8
		c-0.5,0-0.8,0.4-0.8,0.8v14.6c0,0.8-0.6,1.4-1.4,1.4l-48.1,0c-0.8,0-1.4-0.6-1.4-1.4V27c0-0.8,0.6-1.4,1.4-1.4h48.1
		c0.8,0,1.4,0.6,1.4,1.4v28.7c0,0.2,0.1,0.4,0.2,0.6c-1,0.5-1.9,1.1-2.9,1.7c0,0,0,0-0.1,0.1l-5-1.1c-0.1,0-0.2,0-0.3,0l-6.5,0.6
		c-0.3,0-0.6,0.2-0.7,0.5c-0.1,0.3-0.1,0.6,0.1,0.8l3.1,3.9c-2.9,1.3-6.3,2.6-10.2,3.7l-7.2,2.4l-7.4-3.3c-0.2-0.1-0.3-0.1-0.5-0.1
		l-4.5,0.9c-0.3,0.1-0.5,0.3-0.6,0.5c-0.1,0.3,0,0.6,0.2,0.8l8.7,9.9l-1.2,8c0,0.3,0.1,0.6,0.3,0.7c0.2,0.2,0.5,0.3,0.8,0.2l5.7-1.5
		c0.3-0.1,0.5-0.3,0.6-0.5l2.6-6.7l12.9-3.4l-3.8,12.8c-0.1,0.3,0,0.6,0.2,0.8c0.2,0.2,0.4,0.3,0.6,0.3c0.1,0,0.1,0,0.2,0l7.4-2
		c0.2-0.1,0.4-0.2,0.5-0.3l9.6-14.6l13-4.3c0.2-0.1,5.7-2.4,6.9-5.6C121.1,60.7,121.1,59.8,120.6,58.9L120.6,58.9z M51,19.2l1.9,1
		c0,0,0,0,0.1,0c0.1,0,0.1,0,0.2,0.1c0.1,0,0.1,0,0.1,0c0.1,0,0.1,0,0.2,0c0.1,0,0.1,0,0.2,0c0,0,0.1,0,0.1,0l1.9-1V24H51L51,19.2z
		 M87.5,62l-2.3-2.9l4.8-0.5l3.1,0.7c-1.3,0.7-3.2,1.8-5.6,2.8C87.5,62.1,87.5,62,87.5,62L87.5,62z M119.2,61.1
		c-0.8,2.1-4.6,4.1-6,4.6l-10.7,3.6l1.1-1.5c0.3-0.4,0.2-0.9-0.2-1.2c-0.4-0.3-0.9-0.2-1.2,0.2l-2.6,3.6c0,0,0,0,0,0c0,0,0,0,0,0
		L90,85l-5.7,1.5l3.8-12.8l0.7-2.2c0.2-0.4-0.1-0.9-0.5-1.1c-0.4-0.1-0.9,0.1-1.1,0.5l-0.6,1.8l-12.8,3.4l0.2-0.7
		c0.1-0.4-0.1-0.9-0.5-1c-0.4-0.1-0.9,0.1-1,0.5l-0.7,2.1l-2.6,6.7l-4,1.1l1.1-7.1c0-0.2,0-0.5-0.2-0.7l-8-9.1l2.8-0.6l7.4,3.3
		c0.2,0.1,0.4,0.1,0.6,0l7.5-2.5C86.9,65,94,60.7,95.8,59.6c0,0,0,0,0,0c0.2-0.1,0.4-0.2,0.4-0.3c4.5-2.9,8.7-4.4,12.6-4.4
		c1.4,0,2.6,0.2,3.7,0.5l-6.3,2.1c-0.4,0.1-0.7,0.6-0.5,1.1c0.1,0.3,0.4,0.6,0.8,0.6c0.1,0,0.2,0,0.3,0l7.8-2.7
		c0.1,0,0.2-0.1,0.3-0.2c2.6,1.3,4,3,4.3,3.4C119.4,60.1,119.4,60.6,119.2,61.1L119.2,61.1z"/>
	<path class="st0" d="M72.9,37c-0.1,0-0.2,0-0.3,0c0,0,0,0,0,0c0,0,0,0-0.1,0c-7.9,0-14.4,6.4-14.4,14.4c0,0.1,0,0.2,0,0.3
		c0,0,0,0.1,0,0.1c0,0.1,0,0.1,0,0.1c0.3,7.7,6.6,13.8,14.3,13.8c0,0,0,0,0.1,0c0,0,0,0,0,0c0,0,0.1,0,0.1,0c3.3-0.1,6.5-1.2,9-3.4
		c0.4-0.3,0.4-0.8,0.1-1.2c-0.3-0.4-0.8-0.4-1.2-0.1c-0.9,0.8-1.9,1.4-3,1.9c1.9-2.4,3.2-6.1,3.5-10.3h4c0,0.4-0.1,0.9-0.2,1.3
		c-0.1,0.5,0.2,0.9,0.7,1c0.4,0.1,0.9-0.2,1-0.7c0.2-0.8,0.2-1.5,0.3-2.3c0,0,0-0.1,0-0.1c0,0,0-0.1,0-0.1c0-0.1,0-0.2,0-0.3
		C86.8,43.6,80.6,37.2,72.9,37L72.9,37z M85.1,50.9H73.4V38.7c2.5,0.6,4.8,3.9,5.7,8.3c0.1,0.5,0.5,0.7,1,0.7c0.5-0.1,0.7-0.5,0.7-1
		c-0.6-2.9-1.6-5.3-3-7C81.9,41.7,85,46,85.1,50.9L85.1,50.9z M71.7,38.7v12.2h-6.1C65.8,44.7,68.4,39.5,71.7,38.7z M67.5,39.6
		c-2.1,2.5-3.5,6.6-3.5,11.3h-4.2C59.9,45.8,63.1,41.5,67.5,39.6z M59.8,52.6h11.9v11.3c-2.6-0.6-4.9-4-5.7-8.6
		c-0.1-0.5-0.5-0.8-1-0.7c-0.5,0.1-0.8,0.5-0.7,1c0.6,3.1,1.7,5.7,3.2,7.4C63.3,61.3,60.3,57.3,59.8,52.6L59.8,52.6z M73.4,63.9
		V52.6h6C79.1,58.4,76.5,63.2,73.4,63.9z"/>
	<path class="st0" d="M90.2,54.2c0.5,0,0.9-0.3,0.9-0.7c0.1-0.7,0.1-1.4,0.1-2.1c0-10.4-8.4-18.8-18.8-18.8
		c-10.4,0-18.8,8.4-18.8,18.8c0,4.4,1.5,8.7,4.4,12c0.2,0.2,0.4,0.3,0.6,0.3c0.2,0,0.4-0.1,0.5-0.2c0.4-0.3,0.4-0.8,0.1-1.2
		c-2.6-3.1-4-7-4-11c0-9.4,7.7-17.1,17.1-17.1s17.1,7.7,17.1,17.1c0,0.6,0,1.3-0.1,1.9C89.4,53.7,89.7,54.1,90.2,54.2L90.2,54.2z"/>
	<path class="st0" d="M52.9,75.6l-0.1,0.1c-3.2,1.2-6.4,2.3-9.8,3c-3.3,0.7-6.7,1.1-10,1.1c-3.3,0-6.7-0.4-9.8-1.4
		c-3.1-0.9-6.1-2.3-8.7-4.3c-2.5-2-4.6-4.5-5.6-7.5c-1-2.9-1.3-6.3-0.4-9.4c0.8-3.1,2.5-6.2,4.6-8.9c2.1-2.6,4.7-5.1,7.5-7.1
		c0.5-0.4,0.7-1.1,0.3-1.6c-0.4-0.5-1.1-0.7-1.6-0.3c-3.1,2-6.1,4.4-8.5,7.2c-2.6,2.8-4.7,6.1-5.9,9.8c-1.3,3.7-1.3,8-0.2,11.9
		c1.2,4,3.5,7.4,6.5,10.1c3,2.7,6.6,4.7,10.2,6.1c3.7,1.3,7.5,2,11.4,2.4c3.9,0.3,7.7,0,11.5-0.5c3.8-0.5,7.5-1.5,11.2-2.6
		c0.1,0,0.1-0.1,0.2-0.1c2.1-0.8,3.2-3.1,2.4-5.2C57.4,75.9,55.1,74.7,52.9,75.6L52.9,75.6z"/>
</g>
</svg>
