<?xml version="1.0" encoding="utf-8"?>
<!-- Generator: Adobe Illustrator 23.0.3, SVG Export Plug-In . SVG Version: 6.00 Build 0)  -->
<svg version="1.1" id="Layer_1" xmlns="http://www.w3.org/2000/svg" xmlns:xlink="http://www.w3.org/1999/xlink" x="0px" y="0px"
	 viewBox="0 0 122.9 110.3" style="enable-background:new 0 0 122.9 110.3;" xml:space="preserve">
<style type="text/css">
	.st0{fill:#BBBDBF;}
</style>
<g>
	<g>
		<path class="st0" d="M53.3,37.3l19.2-6.8c0.6-0.2,1-0.9,0.8-1.6s-0.9-1-1.6-0.8l-19.2,6.8c-0.6,0.2-1,0.9-0.8,1.6
			C52,37.2,52.7,37.5,53.3,37.3L53.3,37.3z"/>
		<path class="st0" d="M55.1,42.2l12.5-4.4c0.6-0.2,1-0.9,0.8-1.6s-0.9-1-1.6-0.8l-12.5,4.4c-0.6,0.2-1,0.9-0.8,1.6
			C53.7,42.1,54.4,42.5,55.1,42.2z"/>
		<path class="st0" d="M59.5,54.6l19.2-6.8c0.6-0.2,1-0.9,0.8-1.6c-0.2-0.6-0.9-1-1.6-0.8l-19.2,6.8c-0.6,0.2-1,0.9-0.8,1.6
			C58.1,54.5,58.8,54.9,59.5,54.6L59.5,54.6z"/>
		<path class="st0" d="M61.2,59.6l12.5-4.4c0.6-0.2,1-0.9,0.8-1.6c-0.2-0.6-0.9-1-1.6-0.8l-12.5,4.4c-0.6,0.2-1,0.9-0.8,1.6
			S60.6,59.8,61.2,59.6z"/>
		<path class="st0" d="M90.2,55.3L77.8,20.2c-1.5-4.2-6.1-6.4-10.2-4.9l-6.2,2.2l-0.3-0.8c-0.6-1.7-2.4-2.6-4.1-2l-2.1,0.7l-1.1-3.2
			c-0.5-1.3-2-2-3.3-1.6l-9.7,3.4c-1.3,0.5-2,2-1.6,3.3l1.1,3.2l-2.1,0.7c-1.7,0.6-2.6,2.4-2,4.1l0.3,0.8l-6.2,2.2
			c-4.2,1.5-6.4,6.1-4.9,10.2l18,50.9c1.5,4.2,6.1,6.4,10.2,4.9l37.3-13.2c0.2-0.1,0.5-0.2,0.7-0.3c0.3-0.1,0.6-0.2,0.9-0.3
			c6.8-2.4,10.4-9.9,8-16.8C98.8,59.3,94.8,56.1,90.2,55.3L90.2,55.3z M41.5,16.5l9.7-3.4c0,0,0.1,0,0.1,0l1.1,3.1l-9.9,3.5
			L41.5,16.5z M52.7,92.1c-2.9,1-6-0.5-7.1-3.4l-18-50.9c-1-2.9,0.5-6,3.4-7.1l6.2-2.2l0.2,0.7c0.6,1.7,2.4,2.6,4.1,2l18.9-6.7
			c1.7-0.6,2.6-2.5,2-4.1l-0.2-0.7l6.2-2.2c2.9-1,6,0.5,7.1,3.4l12.1,34.2c-1.3,0.1-2.5,0.3-3.8,0.7c-4.6,1.6-7.8,5.6-8.6,10.1
			l-10.3,3.7c-0.6,0.2-1,0.9-0.8,1.6c0.2,0.6,0.9,1,1.6,0.8l9.3-3.3c0,0.9,0.2,1.9,0.4,2.8l-8.8,3.1c-0.6,0.2-1,0.9-0.8,1.6
			c0.2,0.6,0.9,1,1.6,0.8l8.8-3.1c1.6,3.5,4.7,6,8.2,7.1L52.7,92.1z M91.6,78.4c-5.5,1.9-11.5-0.9-13.5-6.3c0-0.1,0-0.1,0-0.2
			c0-0.1-0.1-0.1-0.1-0.2c-1.9-5.5,1.1-11.5,6.6-13.4c5.5-2,11.6,1,13.6,6.5C100.1,70.3,97.2,76.4,91.6,78.4L91.6,78.4z"/>
		<path class="st0" d="M89.4,64.3l-2.5,3.1l-0.7,0.3l-0.6-0.5c-0.8-0.7-2-0.6-2.6,0.2c-0.7,0.8-0.6,2,0.2,2.6l2.4,2
			c0.4,0.3,0.9,0.5,1.4,0.4c0.2,0,0.3,0,0.5-0.1c0.3-0.1,0.6-0.3,0.8-0.6l4.1-5.1c0.7-0.8,0.5-2-0.3-2.6
			C91.2,63.4,90.1,63.5,89.4,64.3L89.4,64.3z"/>
		<path class="st0" d="M43.1,35.7l-7.9,2.8c-1.1,0.4-1.6,1.6-1.3,2.6l2.8,7.9c0.4,1.1,1.6,1.6,2.6,1.3l7.9-2.8
			c1.1-0.4,1.6-1.6,1.3-2.6L45.7,37C45.4,35.9,44.2,35.3,43.1,35.7z M44.1,41.8l-2.9,3.5c-0.1,0.2-0.3,0.3-0.5,0.4
			c-0.1,0-0.2,0.1-0.3,0.1c-0.3,0-0.6-0.1-0.9-0.3l-1.6-1.4c-0.5-0.4-0.6-1.2-0.1-1.7c0.4-0.5,1.2-0.6,1.7-0.1l0.7,0.6l2.1-2.6
			c0.4-0.5,1.2-0.6,1.7-0.2C44.4,40.5,44.5,41.3,44.1,41.8L44.1,41.8z"/>
		<path class="st0" d="M49.2,53.1l-7.9,2.8c-1.1,0.4-1.6,1.6-1.3,2.6l2.8,7.9c0.4,1.1,1.6,1.6,2.6,1.3l7.9-2.8
			c1.1-0.4,1.6-1.6,1.3-2.6l-2.8-7.9C51.5,53.3,50.3,52.7,49.2,53.1z M50.2,59.2l-2.9,3.5c-0.1,0.2-0.3,0.3-0.5,0.4
			c-0.1,0-0.2,0.1-0.3,0.1c-0.3,0-0.6-0.1-0.9-0.3l-1.6-1.4c-0.5-0.4-0.6-1.2-0.1-1.7c0.4-0.5,1.2-0.6,1.7-0.1l0.7,0.6l2.1-2.6
			c0.4-0.5,1.2-0.6,1.7-0.2C50.6,57.9,50.6,58.7,50.2,59.2L50.2,59.2z"/>
		<path class="st0" d="M55.4,70.5l-7.9,2.8c-1.1,0.4-1.6,1.6-1.3,2.6l2.8,7.9c0.4,1.1,1.6,1.6,2.6,1.3l7.9-2.8
			c1.1-0.4,1.6-1.6,1.3-2.6L58,71.7C57.6,70.7,56.5,70.1,55.4,70.5z M56.4,76.5l-2.9,3.5c-0.1,0.2-0.3,0.3-0.5,0.4
			c-0.1,0-0.2,0.1-0.3,0.1c-0.3,0-0.6-0.1-0.9-0.3l-1.6-1.4c-0.5-0.4-0.6-1.2-0.1-1.7c0.4-0.5,1.2-0.6,1.7-0.1l0.7,0.6l2.1-2.6
			c0.4-0.5,1.2-0.6,1.7-0.2C56.7,75.3,56.8,76,56.4,76.5L56.4,76.5z"/>
	</g>
</g>
</svg>
